<svg width="816" height="387" viewBox="0 0 816 387" fill="none" xmlns="http://www.w3.org/2000/svg">
<path d="M241.684 299V301.561H244.245V299H241.684ZM167.177 299H164.617V301.561H167.177V299ZM167.177 241.009H169.738V238.449H167.177V241.009ZM46.4245 241.009H43.8639V243.57H46.4245V241.009ZM46.4245 186.322L44.4389 184.705L43.8639 185.411V186.322H46.4245ZM163.874 42.0795V39.5188H162.657L161.888 40.4627L163.874 42.0795ZM241.684 42.0795H244.245V39.5188H241.684V42.0795ZM241.684 181.551H239.123V184.111H241.684V181.551ZM275.084 181.551H277.644V178.99H275.084V181.551ZM275.084 241.009V243.57H277.644V241.009H275.084ZM241.684 241.009V238.449H239.123V241.009H241.684ZM167.177 127.964H169.738V120.994L165.225 126.307L167.177 127.964ZM121.666 181.551L119.714 179.893L116.131 184.111H121.666V181.551ZM167.177 181.551V184.111H169.738V181.551H167.177ZM241.684 296.439H167.177V301.561H241.684V296.439ZM169.738 299V241.009H164.617V299H169.738ZM167.177 238.449H46.4245V243.57H167.177V238.449ZM48.9852 241.009V186.322H43.8639V241.009H48.9852ZM48.4102 187.939L165.86 43.6963L161.888 40.4627L44.4389 184.705L48.4102 187.939ZM163.874 44.6402H241.684V39.5188H163.874V44.6402ZM239.123 42.0795V181.551H244.245V42.0795H239.123ZM241.684 184.111H275.084V178.99H241.684V184.111ZM272.523 181.551V241.009H277.644V181.551H272.523ZM275.084 238.449H241.684V243.57H275.084V238.449ZM239.123 241.009V299H244.245V241.009H239.123ZM165.225 126.307L119.714 179.893L123.617 183.208L169.129 129.622L165.225 126.307ZM121.666 184.111H167.177V178.99H121.666V184.111ZM169.738 181.551V127.964H164.617V181.551H169.738ZM343.546 284.319L342.007 286.366L342.022 286.377L342.037 286.387L343.546 284.319ZM304.274 106.677L306.621 107.7L306.625 107.691L306.629 107.682L304.274 106.677ZM343.546 57.1277L345.064 59.1899L345.076 59.1814L345.087 59.1729L343.546 57.1277ZM458.059 48.319L456.914 50.6093L456.921 50.613L456.929 50.6166L458.059 48.319ZM495.496 79.1495L493.434 80.6671L495.496 79.1495ZM495.496 261.93L493.434 260.412L495.496 261.93ZM458.059 292.76L456.929 290.463L456.921 290.467L456.914 290.47L458.059 292.76ZM407.776 232.935L407.907 230.377L407.842 230.374H407.776V232.935ZM432 220.823L429.973 219.259L432 220.823ZM444.112 189.258L441.575 188.91L441.572 188.935L441.569 188.959L444.112 189.258ZM444.112 151.821L441.569 152.12L441.572 152.145L441.575 152.169L444.112 151.821ZM432 120.257L429.973 121.821L432 120.257ZM407.776 108.145V110.705H407.842L407.907 110.702L407.776 108.145ZM379.515 127.23L381.805 128.375L381.814 128.358L381.823 128.34L379.515 127.23ZM379.515 214.216L377.208 215.327L377.221 215.353L377.234 215.379L379.515 214.216ZM407.776 301.578C383.547 301.578 362.679 295.111 345.056 282.25L342.037 286.387C360.627 299.953 382.579 306.699 407.776 306.699V301.578ZM345.085 282.272C311.334 256.899 294.356 219.794 294.356 170.54H289.234C289.234 221.118 306.757 259.865 342.007 286.366L345.085 282.272ZM294.356 170.54C294.356 147.357 298.46 126.424 306.621 107.7L301.927 105.653C293.45 125.101 289.234 146.743 289.234 170.54H294.356ZM306.629 107.682C315.013 88.0396 327.814 71.8878 345.064 59.1899L342.028 55.0655C324.043 68.3043 310.663 85.1852 301.919 105.671L306.629 107.682ZM345.087 59.1729C362.454 46.0883 383.306 39.5018 407.776 39.5018V34.3804C382.33 34.3804 360.363 41.2516 342.005 55.0825L345.087 59.1729ZM407.776 39.5018C425.763 39.5018 442.128 43.2161 456.914 50.6093L459.204 46.0287C443.65 38.2513 426.492 34.3804 407.776 34.3804V39.5018ZM456.929 50.6166C472.001 58.0329 484.151 68.0518 493.434 80.6671L497.559 77.6318C487.756 64.3104 474.948 53.7756 459.19 46.0214L456.929 50.6166ZM493.434 80.6671C512.167 106.125 521.564 136.046 521.564 170.54H526.685C526.685 135.054 516.996 104.047 497.559 77.6318L493.434 80.6671ZM521.564 170.54C521.564 205.034 512.167 234.954 493.434 260.412L497.559 263.448C516.996 237.033 526.685 206.026 526.685 170.54H521.564ZM493.434 260.412C484.151 273.028 472.001 283.047 456.929 290.463L459.19 295.058C474.948 287.304 487.756 276.769 497.559 263.448L493.434 260.412ZM456.914 290.47C442.128 297.863 425.763 301.578 407.776 301.578V306.699C426.492 306.699 443.65 302.828 459.204 295.051L456.914 290.47ZM407.645 235.492C418.148 236.031 426.987 231.514 434.028 222.387L429.973 219.259C423.801 227.26 416.49 230.818 407.907 230.377L407.645 235.492ZM434.028 222.387C440.961 213.4 445.142 202.421 446.655 189.557L441.569 188.959C440.146 201.053 436.253 211.118 429.973 219.259L434.028 222.387ZM446.649 189.606C448.394 176.896 448.394 164.183 446.649 151.473L441.575 152.169C443.256 164.417 443.256 176.662 441.575 188.91L446.649 189.606ZM446.655 151.522C445.142 138.658 440.961 127.68 434.028 118.693L429.973 121.821C436.253 129.962 440.146 140.026 441.569 152.12L446.655 151.522ZM434.028 118.693C426.987 109.565 418.148 105.049 407.645 105.587L407.907 110.702C416.49 110.262 423.801 113.82 429.973 121.821L434.028 118.693ZM407.776 105.584C400.967 105.584 394.918 107.294 389.735 110.794C384.568 114.284 380.415 119.448 377.207 126.121L381.823 128.34C384.732 122.289 388.348 117.91 392.601 115.038C396.839 112.177 401.862 110.705 407.776 110.705V105.584ZM377.225 126.085C370.662 139.21 367.412 154.047 367.412 170.54H372.533C372.533 154.734 375.644 140.698 381.805 128.375L377.225 126.085ZM367.412 170.54C367.412 186.796 370.665 201.739 377.208 215.327L381.822 213.105C375.641 200.267 372.533 186.093 372.533 170.54H367.412ZM377.234 215.379C380.568 221.919 384.781 226.975 389.938 230.39C395.111 233.816 401.089 235.495 407.776 235.495V230.374C401.985 230.374 397.013 228.934 392.766 226.12C388.502 223.296 384.824 218.993 381.796 213.053L377.234 215.379ZM734.88 299V301.561H737.44V299H734.88ZM660.373 299H657.812V301.561H660.373V299ZM660.373 241.009H662.933V238.449H660.373V241.009ZM539.62 241.009H537.06V243.57H539.62V241.009ZM539.62 186.322L537.634 184.705L537.06 185.411V186.322H539.62ZM657.07 42.0795V39.5188H655.852L655.084 40.4627L657.07 42.0795ZM734.88 42.0795H737.44V39.5188H734.88V42.0795ZM734.88 181.551H732.319V184.111H734.88V181.551ZM768.279 181.551H770.84V178.99H768.279V181.551ZM768.279 241.009V243.57H770.84V241.009H768.279ZM734.88 241.009V238.449H732.319V241.009H734.88ZM660.373 127.964H662.933V120.994L658.421 126.307L660.373 127.964ZM614.861 181.551L612.909 179.893L609.327 184.111H614.861V181.551ZM660.373 181.551V184.111H662.933V181.551H660.373ZM734.88 296.439H660.373V301.561H734.88V296.439ZM662.933 299V241.009H657.812V299H662.933ZM660.373 238.449H539.62V243.57H660.373V238.449ZM542.181 241.009V186.322H537.06V241.009H542.181ZM541.606 187.939L659.055 43.6963L655.084 40.4627L537.634 184.705L541.606 187.939ZM657.07 44.6402H734.88V39.5188H657.07V44.6402ZM732.319 42.0795V181.551H737.44V42.0795H732.319ZM734.88 184.111H768.279V178.99H734.88V184.111ZM765.719 181.551V241.009H770.84V181.551H765.719ZM768.279 238.449H734.88V243.57H768.279V238.449ZM732.319 241.009V299H737.44V241.009H732.319ZM658.421 126.307L612.909 179.893L616.813 183.208L662.325 129.622L658.421 126.307ZM614.861 184.111H660.373V178.99H614.861V184.111ZM662.933 181.551V127.964H657.812V181.551H662.933Z" fill="url(#paint0_linear)"/>
<g clip-path="url(#clip0)">
<path d="M547.983 166.87C547.983 244.416 485.118 307.281 407.573 307.281C330.036 307.281 267.163 244.416 267.163 166.87C267.163 89.333 330.036 26.4604 407.573 26.4604C485.118 26.4604 547.983 89.333 547.983 166.87Z" fill="#FFCC4D"/>
<path d="M356.87 182.472C367.64 182.472 376.371 170.248 376.371 155.17C376.371 140.091 367.64 127.868 356.87 127.868C346.099 127.868 337.368 140.091 337.368 155.17C337.368 170.248 346.099 182.472 356.87 182.472Z" fill="#664500"/>
<path d="M458.277 182.472C469.047 182.472 477.778 170.248 477.778 155.17C477.778 140.091 469.047 127.868 458.277 127.868C447.506 127.868 438.775 140.091 438.775 155.17C438.775 170.248 447.506 182.472 458.277 182.472Z" fill="#664500"/>
<path d="M450.359 243.932C450.273 243.589 441.427 209.773 407.573 209.773C373.718 209.773 364.872 243.589 364.787 243.932C364.373 245.594 365.13 247.294 366.596 248.176C368.063 249.049 369.974 248.846 371.245 247.708C371.316 247.653 379.147 240.976 407.573 240.976C435.577 240.976 443.588 247.45 443.892 247.708C444.633 248.417 445.6 248.776 446.575 248.776C447.231 248.776 447.894 248.612 448.494 248.277C450.023 247.411 450.788 245.633 450.359 243.932Z" fill="#664500"/>
<path d="M345.169 260.477C345.169 282.022 327.711 299.48 306.166 299.48C284.621 299.48 267.163 282.022 267.163 260.477C267.163 238.932 298.365 182.472 306.166 182.472C313.966 182.472 345.169 238.932 345.169 260.477Z" fill="#5DADEC"/>
<path d="M501.18 127.869C457.856 127.869 440.32 93.8037 439.595 92.3528C437.668 88.4993 439.228 83.8112 443.081 81.8845C446.919 79.9577 451.6 81.51 453.534 85.3401C454.119 86.479 467.739 112.268 501.18 112.268C505.494 112.268 508.981 115.762 508.981 120.068C508.981 124.382 505.494 127.869 501.18 127.869ZM313.967 127.869C309.661 127.869 306.166 124.374 306.166 120.068C306.166 115.762 309.661 112.268 313.967 112.268C353.617 112.268 360.739 87.9299 361.027 86.8924C362.158 82.7737 366.41 80.2775 370.536 81.3618C374.671 82.4461 377.174 86.6116 376.137 90.7615C375.755 92.2748 366.262 127.869 313.967 127.869Z" fill="#664500"/>
</g>
<defs>
<linearGradient id="paint0_linear" x1="151.241" y1="341.662" x2="351.167" y2="-111.509" gradientUnits="userSpaceOnUse">
<stop stop-color="#FFB11A"/>
<stop offset="0.348958" stop-color="#FF6433"/>
<stop offset="0.671875" stop-color="#FF2066"/>
<stop offset="1" stop-color="#AC00C8"/>
</linearGradient>
<clipPath id="clip0">
<rect width="280.82" height="280.82" fill="white" transform="translate(267.163 26.4604)"/>
</clipPath>
</defs>
</svg>
