<svg width="50" height="50" viewBox="-5 -5 60 60" fill="none" xmlns="http://www.w3.org/2000/svg">
<path d="M17.9165 26.4167L24.9998 33.5L32.0832 26.4167" stroke="#2C80FF" stroke-width="2" stroke-linecap="round" stroke-linejoin="round"/>
<path d="M17.9165 16.5L24.9998 23.5833L32.0832 16.5" stroke="#2C80FF" stroke-width="2" stroke-linecap="round" stroke-linejoin="round"/>
<path d="M25 48C12.2975 48 2 37.7025 2 25H-2C-2 39.9117 10.0883 52 25 52V48ZM48 25C48 37.7025 37.7025 48 25 48V52C39.9117 52 52 39.9117 52 25H48ZM25 2C37.7025 2 48 12.2975 48 25H52C52 10.0883 39.9117 -2 25 -2V2ZM25 -2C10.0883 -2 -2 10.0883 -2 25H2C2 12.2975 12.2975 2 25 2V-2Z" fill="#2C80FF"/>
</svg>
