<svg width="80" height="81" viewBox="0 0 80 81" fill="none" xmlns="http://www.w3.org/2000/svg">
<g clip-path="url(#clip0)">
<path d="M31.3984 72.0879C48.7395 76.7751 66.597 66.5172 71.2842 49.1761C75.9715 31.835 65.7135 13.9775 48.3724 9.29025C31.0314 4.60299 13.1739 14.8609 8.4866 32.202C3.79935 49.5431 14.0573 67.4006 31.3984 72.0879Z" fill="#FFCC4D"/>
<path d="M28.0751 39.3689C30.4836 40.0199 33.1749 37.8142 34.0863 34.4423C34.9977 31.0704 33.7841 27.8093 31.3756 27.1582C28.9671 26.5072 26.2758 28.7129 25.3644 32.0848C24.453 35.4567 25.6666 38.7179 28.0751 39.3689Z" fill="#664500"/>
<path d="M58.2219 45.2651C58.1809 45.0014 57.1616 38.8071 52.0017 37.4124C46.8436 36.0182 42.8408 40.855 42.6725 41.0622C42.4144 41.3799 42.405 41.8303 42.6468 42.1615C42.8851 42.4917 43.3206 42.6187 43.7042 42.4735C43.7294 42.4635 46.3309 41.4951 50.5872 42.6456C54.8191 43.7894 56.5807 45.9147 56.6201 45.9627C56.7425 46.1194 56.9118 46.2269 57.0932 46.276C57.2851 46.3278 57.4962 46.3156 57.6889 46.2329C58.0646 46.0687 58.286 45.6718 58.2219 45.2651ZM22.2514 22.8196C21.8886 22.7215 21.5512 22.5087 21.3008 22.1883C20.6859 21.4025 20.8263 20.2668 21.6121 19.6519C29.3533 13.6019 36.9719 15.5676 37.2928 15.6543C38.2557 15.9146 38.826 16.9073 38.5657 17.8702C38.3059 18.8313 37.3189 19.4013 36.3568 19.145C36.0855 19.0754 30.0923 17.6127 23.8373 22.4995C23.3718 22.8641 22.7817 22.9629 22.2514 22.8196ZM60.9611 38.8982C60.4291 38.7544 59.9726 38.3727 59.7525 37.8228C56.8606 30.5721 48.849 29.9564 48.7702 29.9501C47.7641 29.8841 47.0222 29.0209 47.0867 28.0276C47.1534 27.0329 48.0142 26.2792 49.0093 26.3441C49.4344 26.371 59.3827 27.1414 63.108 36.4817C63.4787 37.4093 63.0261 38.4606 62.099 38.8296C61.7227 38.9824 61.3257 38.9968 60.9611 38.8982ZM39.2485 57.4417C41.7715 57.3524 44.3795 56.6647 45.0132 54.3203C46.248 49.7518 37.8442 46.827 36.882 46.5089C36.4163 46.3343 35.9031 46.6055 35.742 47.0767C35.5832 47.5467 35.8325 48.0577 36.3015 48.22C36.3616 48.24 42.3269 50.4084 41.5244 53.3773C40.7219 56.3462 34.4766 55.2141 34.4146 55.201C34.3897 55.1962 34.3685 55.2054 34.3448 55.2028C34.2513 55.1887 34.1602 55.1866 34.0713 55.2037L34.033 55.2139C33.9387 55.2371 33.8526 55.2719 33.7687 55.326C33.7372 55.3455 33.7122 55.3687 33.6833 55.3927C33.6281 55.4377 33.5768 55.4819 33.5323 55.5428C33.4977 55.5878 33.4721 55.6407 33.447 55.692C33.4292 55.7302 33.3984 55.7612 33.384 55.8004C33.3789 55.8196 33.3811 55.8389 33.3764 55.8563C33.3717 55.8738 33.3578 55.8906 33.3548 55.9085C33.3452 55.9509 33.3563 55.9932 33.3541 56.0356C33.35 56.0925 33.3446 56.1472 33.3518 56.2035C33.3604 56.2619 33.379 56.3175 33.3977 56.3731C33.416 56.423 33.4299 56.4754 33.4549 56.5215C33.4842 56.5724 33.5228 56.6166 33.5622 56.6647C33.5961 56.7056 33.6264 56.7457 33.6692 56.7815C33.7179 56.8228 33.7744 56.8493 33.8326 56.8763C33.8716 56.898 33.9009 56.9284 33.9435 56.9437C34.0036 56.9637 39.9689 59.132 39.1664 62.1009C38.3639 65.0699 32.1186 63.9377 32.0566 63.9247C31.5692 63.8304 31.0964 64.1462 30.9973 64.6304C30.902 65.1007 31.1896 65.5603 31.6466 65.6838L31.6959 65.6953C32.6874 65.9052 41.4203 67.6125 42.6552 63.0439C43.2894 60.6977 41.3829 58.7898 39.2485 57.4417Z" fill="#664500"/>
<path d="M64.4684 61.9398C64.4292 60.4505 63.8101 58.9804 62.5998 57.9251C61.2032 56.7071 59.3722 56.3208 57.6995 56.7128C57.8617 55.0047 57.2347 53.2385 55.8411 52.0233C53.5438 50.0171 50.0528 50.2528 48.0489 52.5488C47.7644 52.8744 47.5289 53.2262 47.337 53.5899C44.7799 57.6831 45.4636 64.9528 47.4132 68.4878C49.4974 69.2945 52.6577 69.5347 55.6972 69.0928C59.0021 67.2533 61.9653 64.8291 64.4684 61.9398Z" fill="#FFAC33"/>
<path d="M66.3325 65.0994C68.3364 62.8033 68.1025 59.3128 65.8082 57.3094C64.4116 56.0914 62.5806 55.7051 60.9079 56.0971C61.0701 54.3889 60.4431 52.6228 59.0495 51.4075C56.7522 49.4014 53.2607 49.6388 51.2573 51.9331C50.9728 52.2586 50.7373 52.6105 50.5454 52.9742C47.9901 57.0679 48.672 64.3371 50.6216 67.8721C54.389 69.3284 61.6837 69.0296 65.3954 65.9486C65.7327 65.7047 66.048 65.4249 66.3325 65.0994Z" fill="#DD2E44"/>
</g>
<defs>
<clipPath id="clip0">
<rect width="65.0512" height="65.0512" fill="white" transform="translate(16.9736 0.803223) rotate(15.1255)"/>
</clipPath>
</defs>
</svg>
