<svg width="68" height="69" viewBox="0 0 68 69" fill="none" xmlns="http://www.w3.org/2000/svg">
<circle cx="33.9677" cy="34.8384" r="33.9677" fill="#CFCFCF"/>
<path d="M41.5 20.2334H26.5C22.3579 20.2334 19 23.5912 19 27.7334V42.7334C19 46.8755 22.3579 50.2334 26.5 50.2334H41.5C45.6421 50.2334 49 46.8755 49 42.7334V27.7334C49 23.5912 45.6421 20.2334 41.5 20.2334Z" stroke="#BABABA" stroke-width="2.5" stroke-linecap="round" stroke-linejoin="round"/>
<path d="M39.9996 34.2878C40.1847 35.5362 39.9714 36.8112 39.3902 37.9314C38.8089 39.0516 37.8893 39.96 36.762 40.5274C35.6347 41.0947 34.3572 41.2922 33.1112 41.0917C31.8652 40.8912 30.7142 40.303 29.8218 39.4106C28.9294 38.5182 28.3412 37.3672 28.1407 36.1212C27.9402 34.8752 28.1377 33.5977 28.7051 32.4704C29.2724 31.3431 30.1808 30.4235 31.301 29.8422C32.4212 29.261 33.6962 29.0477 34.9446 29.2328C36.2179 29.4217 37.3968 30.015 38.3071 30.9253C39.2174 31.8356 39.8107 33.0145 39.9996 34.2878Z" stroke="#BABABA" stroke-width="2.5" stroke-linecap="round" stroke-linejoin="round"/>
<path d="M42.25 26.9834H42.265" stroke="#BABABA" stroke-width="2.5" stroke-linecap="round" stroke-linejoin="round"/>
</svg>
