<svg width="50" height="50" viewBox="0 0 50 50" fill="none" xmlns="http://www.w3.org/2000/svg">
<path d="M33.25 16.75H33.265M17.5 10H32.5C36.6421 10 40 13.3579 40 17.5V32.5C40 36.6421 36.6421 40 32.5 40H17.5C13.3579 40 10 36.6421 10 32.5V17.5C10 13.3579 13.3579 10 17.5 10ZM30.9996 24.0545C31.1847 25.3028 30.9714 26.5778 30.3902 27.698C29.8089 28.8182 28.8893 29.7266 27.762 30.294C26.6347 30.8614 25.3572 31.0589 24.1112 30.8584C22.8652 30.6579 21.7142 30.0696 20.8218 29.1772C19.9294 28.2848 19.3412 27.1338 19.1407 25.8878C18.9402 24.6418 19.1377 23.3643 19.7051 22.237C20.2724 21.1098 21.1808 20.1901 22.301 19.6088C23.4212 19.0276 24.6962 18.8144 25.9446 18.9995C27.2179 19.1883 28.3968 19.7817 29.3071 20.6919C30.2174 21.6022 30.8107 22.7811 30.9996 24.0545Z" stroke="#CFCFCF" stroke-width="2.5" stroke-linecap="round" stroke-linejoin="round"/>
</svg>
