<svg width="163" height="57" viewBox="0 0 163 57" fill="none" xmlns="http://www.w3.org/2000/svg">
<path fill-rule="evenodd" clip-rule="evenodd" d="M31.1812 1.24454H11.3991C8.94091 1.24454 6.94814 3.25046 6.94814 5.72489V33.4782L5.71176 34.3493V5.72489C5.71176 2.56312 8.25807 0 11.3991 0H31.1812C34.3222 0 36.8686 2.56312 36.8686 5.72489V22.6507H35.6322V5.72489C35.6322 3.25046 33.6394 1.24454 31.1812 1.24454ZM35.6322 50.9017V51.2751C35.6322 53.7495 33.6394 55.7555 31.1812 55.7555H11.3991C8.94091 55.7555 6.94814 53.7495 6.94814 51.2751V45.3013L5.71176 45.7991V51.2751C5.71176 54.4369 8.25807 57 11.3991 57H31.1812C34.3222 57 36.8686 54.4369 36.8686 51.2751V50.9017H35.6322Z" fill="#FAFAFA"/>
<path fill-rule="evenodd" clip-rule="evenodd" d="M20.0535 30.2218L16.8414 26.8096C16.2778 26.2109 15.3387 26.1855 14.744 26.7528L1.69954 39.1951C1.10476 39.7625 1.07949 40.7077 1.6431 41.3064L4.85519 44.7186C5.41879 45.3173 6.35786 45.3427 6.95264 44.7754L19.9971 32.3331C20.5918 31.7657 20.6171 30.8205 20.0535 30.2218ZM17.7389 25.9536C16.7056 24.856 14.984 24.8093 13.8935 25.8494L0.849126 38.2918C-0.241308 39.3319 -0.287639 41.0648 0.745641 42.1625L3.95773 45.5746C4.99101 46.6722 6.71262 46.7188 7.80306 45.6787L20.8475 33.2364C21.9379 32.1963 21.9842 30.4634 20.951 29.3657L17.7389 25.9536Z" fill="#FAFAFA"/>
<path fill-rule="evenodd" clip-rule="evenodd" d="M41.0723 27.8777V24.8908C41.0723 24.066 40.408 23.3974 39.5886 23.3974H28.9557C28.1363 23.3974 27.4721 24.066 27.4721 24.8908V27.8777C27.4721 28.7025 28.1363 29.3712 28.9557 29.3712H39.5886C40.408 29.3712 41.0723 28.7025 41.0723 27.8777ZM42.3086 24.8908C42.3086 23.3787 41.0908 22.1528 39.5886 22.1528H28.9557C27.4535 22.1528 26.2357 23.3787 26.2357 24.8908V27.8777C26.2357 29.3899 27.4535 30.6157 28.9557 30.6157H39.5886C41.0908 30.6157 42.3086 29.3899 42.3086 27.8777V24.8908Z" fill="#FAFAFA"/>
<path fill-rule="evenodd" clip-rule="evenodd" d="M43.0505 34.8472V32.3581C43.0505 31.5333 42.3862 30.8646 41.5668 30.8646H26.483C25.6636 30.8646 24.9993 31.5333 24.9993 32.3581V34.8472C24.9993 35.672 25.6636 36.3406 26.483 36.3406H41.5668C42.3862 36.3406 43.0505 35.672 43.0505 34.8472ZM44.2868 32.3581C44.2868 30.8459 43.069 29.6201 41.5668 29.6201H26.483C24.9807 29.6201 23.7629 30.8459 23.7629 32.3581V34.8472C23.7629 36.3593 24.9807 37.5852 26.483 37.5852H41.5668C43.069 37.5852 44.2868 36.3593 44.2868 34.8472V32.3581Z" fill="#FAFAFA"/>
<path fill-rule="evenodd" clip-rule="evenodd" d="M41.0723 41.8166V39.3275C41.0723 38.5027 40.408 37.8341 39.5886 37.8341H27.9666C27.1472 37.8341 26.483 38.5027 26.483 39.3275V41.8166C26.483 42.6414 27.1472 43.31 27.9666 43.31H39.5886C40.408 43.31 41.0723 42.6414 41.0723 41.8166ZM42.3086 39.3275C42.3086 37.8154 41.0908 36.5895 39.5886 36.5895H27.9666C26.4644 36.5895 25.2466 37.8154 25.2466 39.3275V41.8166C25.2466 43.3287 26.4644 44.5546 27.9666 44.5546H39.5886C41.0908 44.5546 42.3086 43.3287 42.3086 41.8166V39.3275Z" fill="#FAFAFA"/>
<path fill-rule="evenodd" clip-rule="evenodd" d="M39.3413 48.786V46.2969C39.3413 45.4721 38.6771 44.8035 37.8577 44.8035H29.6976C28.8782 44.8035 28.2139 45.4721 28.2139 46.2969V48.786C28.2139 49.6108 28.8782 50.2795 29.6976 50.2795H37.8577C38.6771 50.2795 39.3413 49.6108 39.3413 48.786ZM40.5777 46.2969C40.5777 44.7848 39.3599 43.559 37.8577 43.559H29.6976C28.1953 43.559 26.9775 44.7848 26.9775 46.2969V48.786C26.9775 50.2982 28.1953 51.524 29.6976 51.524H37.8577C39.3599 51.524 40.5777 50.2982 40.5777 48.786V46.2969Z" fill="#FAFAFA"/>
<path fill-rule="evenodd" clip-rule="evenodd" d="M23.7629 5.72489H18.5701V4.48035H23.7629V5.72489Z" fill="#FAFAFA"/>
<path d="M24.0102 49.4083C24.0102 50.9892 22.737 52.2707 21.1665 52.2707C19.596 52.2707 18.3228 50.9892 18.3228 49.4083C18.3228 47.8274 19.596 46.5459 21.1665 46.5459C22.737 46.5459 24.0102 47.8274 24.0102 49.4083Z" fill="#FAFAFA"/>
<path d="M60.1099 17.2424C58.2227 17.2424 56.6619 16.6151 55.4275 15.3606C54.205 14.1061 53.5937 12.5649 53.5937 10.7369C53.5937 8.90893 54.205 7.36769 55.4275 6.11319C56.6619 4.85869 58.2227 4.23145 60.1099 4.23145C61.2494 4.23145 62.2939 4.50624 63.2434 5.05583C64.2048 5.60542 64.9526 6.34617 65.4867 7.27808L64.0446 8.12039C63.6885 7.42743 63.1544 6.87784 62.4422 6.47162C61.7419 6.05345 60.9645 5.84437 60.1099 5.84437C58.6737 5.84437 57.4987 6.31033 56.5847 7.24224C55.6827 8.17415 55.2316 9.33905 55.2316 10.7369C55.2316 12.1228 55.6827 13.2818 56.5847 14.2137C57.4987 15.1456 58.6737 15.6115 60.1099 15.6115C60.9645 15.6115 61.7419 15.4084 62.4422 15.0022C63.1544 14.584 63.6885 14.0345 64.0446 13.3534L65.4867 14.1778C64.9644 15.1097 64.2226 15.8565 63.2612 16.418C62.2998 16.9676 61.2494 17.2424 60.1099 17.2424Z" fill="#FAFAFA"/>
<path d="M75.9078 17.0094V7.65443L69.4984 17.0094H68.1631V4.46442H69.8189V13.8373L76.2283 4.46442H77.5636V17.0094H75.9078Z" fill="#FAFAFA"/>
<path d="M85.713 9.39281C86.7931 9.39281 87.7071 9.76318 88.4548 10.5039C89.2026 11.2327 89.5765 12.1288 89.5765 13.1921C89.5765 14.2794 89.2026 15.1874 88.4548 15.9162C87.7189 16.645 86.805 17.0094 85.713 17.0094H81.0306V4.46442H88.5082V6.04151H82.6864V9.39281H85.713ZM85.713 15.4502C86.3302 15.4502 86.8525 15.2352 87.2798 14.8051C87.7189 14.375 87.9385 13.8373 87.9385 13.1921C87.9385 12.5589 87.7189 12.0273 87.2798 11.5971C86.8525 11.167 86.3302 10.952 85.713 10.952H82.6864V15.4502H85.713Z" fill="#FAFAFA"/>
<path d="M99.991 17.0094V7.65443L93.5816 17.0094H92.2463V4.46442H93.9021V13.8373L100.312 4.46442H101.647V17.0094H99.991Z" fill="#FAFAFA"/>
<path d="M109.636 4.46442C110.787 4.46442 111.743 4.85272 112.502 5.62931C113.274 6.39396 113.66 7.34977 113.66 8.49674C113.66 9.63176 113.274 10.5876 112.502 11.3642C111.743 12.1408 110.787 12.5291 109.636 12.5291H106.77V17.0094H105.114V4.46442H109.636ZM109.636 10.9699C110.324 10.9699 110.894 10.7369 111.345 10.271C111.796 9.79305 112.022 9.20165 112.022 8.49674C112.022 7.77988 111.796 7.18848 111.345 6.72252C110.894 6.25656 110.324 6.02359 109.636 6.02359H106.77V10.9699H109.636Z" fill="#FAFAFA"/>
<path d="M122.187 17.2424C120.3 17.2424 118.739 16.6151 117.505 15.3606C116.282 14.1061 115.671 12.5649 115.671 10.7369C115.671 8.90893 116.282 7.36769 117.505 6.11319C118.739 4.85869 120.3 4.23145 122.187 4.23145C123.327 4.23145 124.371 4.50624 125.321 5.05583C126.282 5.60542 127.03 6.34617 127.564 7.27808L126.122 8.12039C125.766 7.42743 125.232 6.87784 124.519 6.47162C123.819 6.05345 123.042 5.84437 122.187 5.84437C120.751 5.84437 119.576 6.31033 118.662 7.24224C117.76 8.17415 117.309 9.33905 117.309 10.7369C117.309 12.1228 117.76 13.2818 118.662 14.2137C119.576 15.1456 120.751 15.6115 122.187 15.6115C123.042 15.6115 123.819 15.4084 124.519 15.0022C125.232 14.584 125.766 14.0345 126.122 13.3534L127.564 14.1778C127.042 15.1097 126.3 15.8565 125.338 16.418C124.377 16.9676 123.327 17.2424 122.187 17.2424Z" fill="#FAFAFA"/>
<path d="M139.302 17.0094H137.273L131.896 10.9878V17.0094H130.24V4.46442H131.896V10.1276L137.095 4.46442H139.124L133.623 10.5577L139.302 17.0094Z" fill="#FAFAFA"/>
<path d="M150.879 15.3427C149.633 16.6092 148.108 17.2424 146.303 17.2424C144.499 17.2424 142.974 16.6092 141.728 15.3427C140.482 14.0763 139.858 12.541 139.858 10.7369C139.858 8.92088 140.482 7.38561 141.728 6.13111C142.974 4.86467 144.499 4.23145 146.303 4.23145C148.108 4.23145 149.633 4.86467 150.879 6.13111C152.137 7.38561 152.766 8.92088 152.766 10.7369C152.766 12.541 152.137 14.0763 150.879 15.3427ZM142.867 14.2137C143.793 15.1456 144.938 15.6115 146.303 15.6115C147.668 15.6115 148.808 15.1456 149.722 14.2137C150.648 13.2698 151.11 12.1109 151.11 10.7369C151.11 9.35099 150.648 8.19207 149.722 7.26016C148.808 6.3163 147.668 5.84437 146.303 5.84437C144.938 5.84437 143.793 6.3163 142.867 7.26016C141.953 8.19207 141.496 9.35099 141.496 10.7369C141.496 12.1109 141.953 13.2698 142.867 14.2137Z" fill="#FAFAFA"/>
<path d="M157.214 15.4323H163V17.0094H155.558V4.46442H162.911V6.04151H157.214V9.89461H162.466V11.4538H157.214V15.4323Z" fill="#FAFAFA"/>
<path d="M62.46 34.6819L61.4452 31.8682H55.837L54.8222 34.6819H53.0596L57.7064 22.1369H59.5758L64.2226 34.6819H62.46ZM56.4067 30.3091H60.8755L58.6322 24.1262L56.4067 30.3091Z" fill="#FAFAFA"/>
<path d="M73.758 22.1369V23.714H68.4168V34.6819H66.7611V22.1369H73.758Z" fill="#FAFAFA"/>
<path d="M78.1262 33.1048H83.9125V34.6819H76.4704V22.1369H83.8234V23.714H78.1262V27.5671H83.3783V29.1263H78.1262V33.1048Z" fill="#FAFAFA"/>
<path d="M94.6887 22.1369H96.3266V34.6819H94.6887V29.0367H88.6354V34.6819H86.9796V22.1369H88.6354V27.4596H94.6887V22.1369Z" fill="#FAFAFA"/>
<path d="M108.038 22.1369V23.714H104.353V34.6819H102.715V23.714H99.0472V22.1369H108.038Z" fill="#FAFAFA"/>
<path d="M115.89 34.9149C114.002 34.9149 112.442 34.2876 111.207 33.0331C109.985 31.7786 109.373 30.2374 109.373 28.4094C109.373 26.5814 109.985 25.0402 111.207 23.7857C112.442 22.5312 114.002 21.9039 115.89 21.9039C117.029 21.9039 118.074 22.1787 119.023 22.7283C119.985 23.2779 120.732 24.0187 121.266 24.9506L119.824 25.7929C119.468 25.0999 118.934 24.5503 118.222 24.1441C117.522 23.7259 116.744 23.5169 115.89 23.5169C114.453 23.5169 113.278 23.9828 112.364 24.9147C111.462 25.8466 111.011 27.0115 111.011 28.4094C111.011 29.7953 111.462 30.9542 112.364 31.8862C113.278 32.8181 114.453 33.284 115.89 33.284C116.744 33.284 117.522 33.0809 118.222 32.6747C118.934 32.2565 119.468 31.7069 119.824 31.0259L121.266 31.8503C120.744 32.7822 120.002 33.5289 119.041 34.0905C118.08 34.6401 117.029 34.9149 115.89 34.9149Z" fill="#FAFAFA"/>
<path d="M132.047 22.1369V23.714H128.362V34.6819H126.724V23.714H123.056V22.1369H132.047Z" fill="#FAFAFA"/>
<path d="M141.875 28.1764C142.445 28.4512 142.896 28.8455 143.228 29.3592C143.573 29.873 143.745 30.4644 143.745 31.1335C143.745 32.1371 143.395 32.9794 142.694 33.6604C141.994 34.3414 141.139 34.6819 140.131 34.6819H134.754V22.1369H139.739C140.712 22.1369 141.537 22.4655 142.214 23.1226C142.89 23.7797 143.228 24.5921 143.228 25.5599C143.228 26.671 142.777 27.5432 141.875 28.1764ZM139.739 23.6961H136.41V27.5313H139.739C140.261 27.5313 140.7 27.3461 141.056 26.9757C141.412 26.6053 141.591 26.1513 141.591 25.6137C141.591 25.088 141.407 24.6399 141.039 24.2696C140.683 23.8872 140.249 23.6961 139.739 23.6961ZM140.131 33.1227C140.688 33.1227 141.157 32.9256 141.537 32.5313C141.917 32.1371 142.107 31.6532 142.107 31.0797C142.107 30.5182 141.911 30.0403 141.519 29.646C141.139 29.2517 140.677 29.0546 140.131 29.0546H136.41V33.1227H140.131Z" fill="#FAFAFA"/>
<path d="M157.137 33.0152C155.891 34.2817 154.366 34.9149 152.562 34.9149C150.758 34.9149 149.233 34.2817 147.986 33.0152C146.74 31.7488 146.117 30.2135 146.117 28.4094C146.117 26.5934 146.74 25.0581 147.986 23.8036C149.233 22.5372 150.758 21.9039 152.562 21.9039C154.366 21.9039 155.891 22.5372 157.137 23.8036C158.396 25.0581 159.025 26.5934 159.025 28.4094C159.025 30.2135 158.396 31.7488 157.137 33.0152ZM149.126 31.8862C150.052 32.8181 151.197 33.284 152.562 33.284C153.927 33.284 155.066 32.8181 155.98 31.8862C156.906 30.9423 157.369 29.7834 157.369 28.4094C157.369 27.0235 156.906 25.8646 155.98 24.9327C155.066 23.9888 153.927 23.5169 152.562 23.5169C151.197 23.5169 150.052 23.9888 149.126 24.9327C148.212 25.8646 147.755 27.0235 147.755 28.4094C147.755 29.7834 148.212 30.9423 149.126 31.8862Z" fill="#FAFAFA"/>
<path d="M58.9349 44.7378C60.015 44.7378 60.9289 45.1082 61.6767 45.8489C62.4244 46.5777 62.7983 47.4738 62.7983 48.5371C62.7983 49.6244 62.4244 50.5324 61.6767 51.2612C60.9408 51.99 60.0268 52.3544 58.9349 52.3544H54.2524V39.8094H61.7301V41.3865H55.9082V44.7378H58.9349ZM58.9349 50.7952C59.5521 50.7952 60.0743 50.5802 60.5016 50.1501C60.9408 49.7199 61.1603 49.1823 61.1603 48.5371C61.1603 47.9039 60.9408 47.3722 60.5016 46.9421C60.0743 46.512 59.5521 46.297 58.9349 46.297H55.9082V50.7952H58.9349Z" fill="#FAFAFA"/>
<path d="M64.2104 52.3544V50.849C65.0293 50.9685 65.6406 50.7415 66.0442 50.168C66.4596 49.5825 66.6673 48.5013 66.6673 46.9242V39.8094H74.8927V52.3544H73.2369V41.3865H68.3231V46.9242C68.3231 48.0473 68.2162 48.9911 68.0026 49.7558C67.8008 50.5085 67.5041 51.076 67.1124 51.4583C66.7326 51.8406 66.3053 52.1035 65.8305 52.2469C65.3676 52.3783 64.8276 52.4141 64.2104 52.3544Z" fill="#FAFAFA"/>
<path d="M88.8234 50.6877C87.5771 51.9541 86.0519 52.5874 84.2478 52.5874C82.4437 52.5874 80.9185 51.9541 79.6722 50.6877C78.4259 49.4212 77.8028 47.886 77.8028 46.0819C77.8028 44.2659 78.4259 42.7306 79.6722 41.4761C80.9185 40.2096 82.4437 39.5764 84.2478 39.5764C86.0519 39.5764 87.5771 40.2096 88.8234 41.4761C90.0816 42.7306 90.7106 44.2659 90.7106 46.0819C90.7106 47.886 90.0816 49.4212 88.8234 50.6877ZM80.8117 49.5586C81.7375 50.4906 82.8828 50.9565 84.2478 50.9565C85.6128 50.9565 86.7522 50.4906 87.6662 49.5586C88.592 48.6148 89.0549 47.4559 89.0549 46.0819C89.0549 44.696 88.592 43.5371 87.6662 42.6051C86.7522 41.6613 85.6128 41.1894 84.2478 41.1894C82.8828 41.1894 81.7375 41.6613 80.8117 42.6051C79.8977 43.5371 79.4408 44.696 79.4408 46.0819C79.4408 47.4559 79.8977 48.6148 80.8117 49.5586Z" fill="#FAFAFA"/>
<path d="M100.588 39.8094V41.3865H95.2471V52.3544H93.5914V39.8094H100.588Z" fill="#FAFAFA"/>
<path d="M104.778 50.7773H110.565V52.3544H103.123V39.8094H110.476V41.3865H104.778V45.2396H110.031V46.7987H104.778V50.7773Z" fill="#FAFAFA"/>
<path d="M117.976 39.8094C119.127 39.8094 120.083 40.1977 120.842 40.9743C121.614 41.7389 122 42.6947 122 43.8417C122 44.9767 121.614 45.9325 120.842 46.7091C120.083 47.4857 119.127 47.874 117.976 47.874H115.11V52.3544H113.454V39.8094H117.976ZM117.976 46.3149C118.664 46.3149 119.234 46.0819 119.685 45.6159C120.136 45.138 120.362 44.5466 120.362 43.8417C120.362 43.1249 120.136 42.5335 119.685 42.0675C119.234 41.6015 118.664 41.3686 117.976 41.3686H115.11V46.3149H117.976Z" fill="#FAFAFA"/>
<path d="M135.12 50.6877C133.874 51.9541 132.349 52.5874 130.545 52.5874C128.741 52.5874 127.216 51.9541 125.969 50.6877C124.723 49.4212 124.1 47.886 124.1 46.0819C124.1 44.2659 124.723 42.7306 125.969 41.4761C127.216 40.2096 128.741 39.5764 130.545 39.5764C132.349 39.5764 133.874 40.2096 135.12 41.4761C136.379 42.7306 137.008 44.2659 137.008 46.0819C137.008 47.886 136.379 49.4212 135.12 50.6877ZM127.109 49.5586C128.035 50.4906 129.18 50.9565 130.545 50.9565C131.91 50.9565 133.049 50.4906 133.963 49.5586C134.889 48.6148 135.352 47.4559 135.352 46.0819C135.352 44.696 134.889 43.5371 133.963 42.6051C133.049 41.6613 131.91 41.1894 130.545 41.1894C129.18 41.1894 128.035 41.6613 127.109 42.6051C126.195 43.5371 125.738 44.696 125.738 46.0819C125.738 47.4559 126.195 48.6148 127.109 49.5586Z" fill="#FAFAFA"/>
<path d="M147.01 45.8489C147.58 46.1237 148.031 46.518 148.363 47.0317C148.707 47.5455 148.879 48.1369 148.879 48.8059C148.879 49.8095 148.529 50.6518 147.829 51.3329C147.129 52.0139 146.274 52.3544 145.265 52.3544H139.888V39.8094H144.874C145.847 39.8094 146.672 40.138 147.348 40.7951C148.025 41.4522 148.363 42.2646 148.363 43.2324C148.363 44.3435 147.912 45.2157 147.01 45.8489ZM144.874 41.3686H141.544V45.2037H144.874C145.396 45.2037 145.835 45.0186 146.191 44.6482C146.547 44.2778 146.725 43.8238 146.725 43.2862C146.725 42.7605 146.541 42.3124 146.173 41.9421C145.817 41.5597 145.384 41.3686 144.874 41.3686ZM145.265 50.7952C145.823 50.7952 146.292 50.5981 146.672 50.2038C147.052 49.8095 147.241 49.3257 147.241 48.7522C147.241 48.1906 147.046 47.7127 146.654 47.3185C146.274 46.9242 145.811 46.7271 145.265 46.7271H141.544V50.7952H145.265Z" fill="#FAFAFA"/>
</svg>
