<svg width="183" height="64" viewBox="0 0 183 64" fill="none" xmlns="http://www.w3.org/2000/svg">
<path fill-rule="evenodd" clip-rule="evenodd" d="M35.0071 1.39738H12.7978C10.038 1.39738 7.80067 3.64964 7.80067 6.42795V37.5895L6.41259 38.5677V6.42795C6.41259 2.87789 9.27133 0 12.7978 0H35.0071C38.5336 0 41.3923 2.87789 41.3923 6.42795V25.4323H40.0042V6.42795C40.0042 3.64964 37.767 1.39738 35.0071 1.39738ZM40.0042 57.1528V57.5721C40.0042 60.3504 37.767 62.6026 35.0071 62.6026H12.7978C10.038 62.6026 7.80067 60.3504 7.80067 57.5721V50.8646L6.41259 51.4236V57.5721C6.41259 61.1221 9.27133 64 12.7978 64H35.0071C38.5336 64 41.3923 61.1221 41.3923 57.5721V57.1528H40.0042Z" fill="#1D1D1D"/>
<path fill-rule="evenodd" clip-rule="evenodd" d="M22.5141 33.9332L18.9078 30.1021C18.2751 29.4298 17.2208 29.4013 16.553 30.0383L1.90808 44.0086C1.24031 44.6456 1.21194 45.7069 1.8447 46.3791L5.45092 50.2103C6.08368 50.8825 7.13796 50.9111 7.80572 50.2741L22.4507 36.3038C23.1185 35.6668 23.1468 34.6054 22.5141 33.9332ZM19.9154 29.1409C18.7554 27.9085 16.8225 27.8561 15.5983 29.0239L0.953313 42.9942C-0.270916 44.1621 -0.322933 46.1079 0.837131 47.3403L4.44334 51.1715C5.60341 52.4039 7.53626 52.4563 8.76049 51.2884L23.4055 37.3181C24.6297 36.1503 24.6817 34.2045 23.5216 32.9721L19.9154 29.1409Z" fill="#1D1D1D"/>
<path fill-rule="evenodd" clip-rule="evenodd" d="M46.1118 31.3013V27.9476C46.1118 27.0215 45.366 26.2707 44.4461 26.2707H32.5086C31.5886 26.2707 30.8429 27.0215 30.8429 27.9476V31.3013C30.8429 32.2274 31.5886 32.9782 32.5086 32.9782H44.4461C45.366 32.9782 46.1118 32.2274 46.1118 31.3013ZM47.4999 27.9476C47.4999 26.2497 46.1327 24.8734 44.4461 24.8734H32.5086C30.822 24.8734 29.4548 26.2497 29.4548 27.9476V31.3013C29.4548 32.9992 30.822 34.3755 32.5086 34.3755H44.4461C46.1327 34.3755 47.4999 32.9992 47.4999 31.3013V27.9476Z" fill="#1D1D1D"/>
<path fill-rule="evenodd" clip-rule="evenodd" d="M48.3327 39.1266V36.3319C48.3327 35.4058 47.587 34.655 46.667 34.655H29.7324C28.8125 34.655 28.0667 35.4058 28.0667 36.3319V39.1266C28.0667 40.0527 28.8125 40.8035 29.7324 40.8035H46.667C47.587 40.8035 48.3327 40.0527 48.3327 39.1266ZM49.7208 36.3319C49.7208 34.634 48.3536 33.2576 46.667 33.2576H29.7324C28.0458 33.2576 26.6786 34.634 26.6786 36.3319V39.1266C26.6786 40.8245 28.0458 42.2009 29.7324 42.2009H46.667C48.3536 42.2009 49.7208 40.8245 49.7208 39.1266V36.3319Z" fill="#1D1D1D"/>
<path fill-rule="evenodd" clip-rule="evenodd" d="M46.1118 46.952V44.1572C46.1118 43.2311 45.366 42.4804 44.4461 42.4804H31.3981C30.4782 42.4804 29.7324 43.2311 29.7324 44.1572V46.952C29.7324 47.8781 30.4782 48.6288 31.3981 48.6288H44.4461C45.366 48.6288 46.1118 47.8781 46.1118 46.952ZM47.4999 44.1572C47.4999 42.4594 46.1327 41.083 44.4461 41.083H31.3981C29.7115 41.083 28.3443 42.4594 28.3443 44.1572V46.952C28.3443 48.6498 29.7115 50.0262 31.3981 50.0262H44.4461C46.1327 50.0262 47.4999 48.6498 47.4999 46.952V44.1572Z" fill="#1D1D1D"/>
<path fill-rule="evenodd" clip-rule="evenodd" d="M44.1685 54.7773V51.9825C44.1685 51.0564 43.4227 50.3057 42.5028 50.3057H33.3414C32.4215 50.3057 31.6757 51.0564 31.6757 51.9825V54.7773C31.6757 55.7034 32.4215 56.4542 33.3414 56.4542H42.5028C43.4227 56.4542 44.1685 55.7034 44.1685 54.7773ZM45.5566 51.9825C45.5566 50.2847 44.1893 48.9083 42.5028 48.9083H33.3414C31.6549 48.9083 30.2876 50.2847 30.2876 51.9825V54.7773C30.2876 56.4751 31.6549 57.8515 33.3414 57.8515H42.5028C44.1893 57.8515 45.5566 56.4751 45.5566 54.7773V51.9825Z" fill="#1D1D1D"/>
<path fill-rule="evenodd" clip-rule="evenodd" d="M26.6786 6.42795H20.8487V5.03057H26.6786V6.42795Z" fill="#1D1D1D"/>
<path d="M26.9562 55.476C26.9562 57.251 25.5269 58.69 23.7636 58.69C22.0004 58.69 20.571 57.251 20.571 55.476C20.571 53.701 22.0004 52.262 23.7636 52.262C25.5269 52.262 26.9562 53.701 26.9562 55.476Z" fill="#1D1D1D"/>
<path d="M67.4857 19.3597C65.367 19.3597 63.6146 18.6555 62.2288 17.2469C60.8562 15.8384 60.17 14.1078 60.17 12.0554C60.17 10.0029 60.8562 8.27238 62.2288 6.86382C63.6146 5.45526 65.367 4.75098 67.4857 4.75098C68.765 4.75098 69.9376 5.05952 71.0037 5.6766C72.0831 6.29368 72.9226 7.12541 73.5222 8.17176L71.9032 9.11751C71.5034 8.33945 70.9037 7.72237 70.1042 7.26626C69.318 6.79674 68.4452 6.56198 67.4857 6.56198C65.8733 6.56198 64.5541 7.08516 63.528 8.13152C62.5153 9.17788 62.0089 10.4858 62.0089 12.0554C62.0089 13.6115 62.5153 14.9127 63.528 15.9591C64.5541 17.0054 65.8733 17.5286 67.4857 17.5286C68.4452 17.5286 69.318 17.3006 70.1042 16.8445C70.9037 16.3749 71.5034 15.7579 71.9032 14.9932L73.5222 15.9188C72.9359 16.9652 72.1031 17.8036 71.0237 18.4341C69.9443 19.0512 68.765 19.3597 67.4857 19.3597Z" fill="#1D1D1D"/>
<path d="M85.222 19.0982V8.59433L78.0262 19.0982H76.527V5.01257H78.386V15.5365L85.5818 5.01257H87.0809V19.0982H85.222Z" fill="#1D1D1D"/>
<path d="M96.2303 10.5462C97.4429 10.5462 98.469 10.9621 99.3085 11.7938C100.148 12.6121 100.568 13.6182 100.568 14.8121C100.568 16.0329 100.148 17.0524 99.3085 17.8707C98.4823 18.689 97.4563 19.0982 96.2303 19.0982H90.9734V5.01257H99.3685V6.78333H92.8323V10.5462H96.2303ZM96.2303 17.3475C96.9232 17.3475 97.5096 17.1061 97.9893 16.6231C98.4823 16.1402 98.7289 15.5365 98.7289 14.8121C98.7289 14.1011 98.4823 13.5042 97.9893 13.0212C97.5096 12.5383 96.9232 12.2968 96.2303 12.2968H92.8323V17.3475H96.2303Z" fill="#1D1D1D"/>
<path d="M112.26 19.0982V8.59433L105.064 19.0982H103.565V5.01257H105.424V15.5365L112.62 5.01257H114.119V19.0982H112.26Z" fill="#1D1D1D"/>
<path d="M123.089 5.01257C124.381 5.01257 125.454 5.44855 126.307 6.32051C127.173 7.17906 127.606 8.25225 127.606 9.54008C127.606 10.8145 127.173 11.8877 126.307 12.7596C125.454 13.6316 124.381 14.0676 123.089 14.0676H119.871V19.0982H118.012V5.01257H123.089ZM123.089 12.317C123.862 12.317 124.501 12.0554 125.008 11.5322C125.514 10.9956 125.767 10.3316 125.767 9.54008C125.767 8.73519 125.514 8.07115 125.008 7.54797C124.501 7.02479 123.862 6.7632 123.089 6.7632H119.871V12.317H123.089Z" fill="#1D1D1D"/>
<path d="M137.18 19.3597C135.061 19.3597 133.309 18.6555 131.923 17.2469C130.55 15.8384 129.864 14.1078 129.864 12.0554C129.864 10.0029 130.55 8.27238 131.923 6.86382C133.309 5.45526 135.061 4.75098 137.18 4.75098C138.459 4.75098 139.632 5.05952 140.698 5.6766C141.777 6.29368 142.617 7.12541 143.216 8.17176L141.597 9.11751C141.197 8.33945 140.598 7.72237 139.798 7.26626C139.012 6.79674 138.139 6.56198 137.18 6.56198C135.567 6.56198 134.248 7.08516 133.222 8.13152C132.209 9.17788 131.703 10.4858 131.703 12.0554C131.703 13.6115 132.209 14.9127 133.222 15.9591C134.248 17.0054 135.567 17.5286 137.18 17.5286C138.139 17.5286 139.012 17.3006 139.798 16.8445C140.598 16.3749 141.197 15.7579 141.597 14.9932L143.216 15.9188C142.63 16.9652 141.797 17.8036 140.718 18.4341C139.638 19.0512 138.459 19.3597 137.18 19.3597Z" fill="#1D1D1D"/>
<path d="M156.395 19.0982H154.116L148.08 12.3371V19.0982H146.221V5.01257H148.08V11.3712L153.917 5.01257H156.195L150.019 11.8541L156.395 19.0982Z" fill="#1D1D1D"/>
<path d="M169.392 17.2268C167.993 18.6488 166.281 19.3597 164.255 19.3597C162.23 19.3597 160.517 18.6488 159.118 17.2268C157.719 15.8048 157.019 14.081 157.019 12.0554C157.019 10.0163 157.719 8.2925 159.118 6.88394C160.517 5.46196 162.23 4.75098 164.255 4.75098C166.281 4.75098 167.993 5.46196 169.392 6.88394C170.805 8.2925 171.511 10.0163 171.511 12.0554C171.511 14.081 170.805 15.8048 169.392 17.2268ZM160.397 15.9591C161.437 17.0054 162.723 17.5286 164.255 17.5286C165.788 17.5286 167.067 17.0054 168.093 15.9591C169.132 14.8993 169.652 13.5981 169.652 12.0554C169.652 10.4992 169.132 9.198 168.093 8.15164C167.067 7.09187 165.788 6.56198 164.255 6.56198C162.723 6.56198 161.437 7.09187 160.397 8.15164C159.371 9.198 158.858 10.4992 158.858 12.0554C158.858 13.5981 159.371 14.8993 160.397 15.9591Z" fill="#1D1D1D"/>
<path d="M176.504 17.3274H183V19.0982H174.645V5.01257H182.9V6.78333H176.504V11.1096H182.401V12.8603H176.504V17.3274Z" fill="#1D1D1D"/>
<path d="M70.1242 38.941L68.9849 35.7818H62.6885L61.5492 38.941H59.5703L64.7873 24.8554H66.8861L72.1031 38.941H70.1242ZM63.3281 34.0311H68.3452L65.8267 27.0889L63.3281 34.0311Z" fill="#1D1D1D"/>
<path d="M82.8084 24.8554V26.6261H76.8119V38.941H74.953V24.8554H82.8084Z" fill="#1D1D1D"/>
<path d="M87.7126 37.1702H94.2088V38.941H85.8537V24.8554H94.1089V26.6261H87.7126V30.9524H93.6092V32.7031H87.7126V37.1702Z" fill="#1D1D1D"/>
<path d="M106.307 24.8554H108.146V38.941H106.307V32.6024H99.5112V38.941H97.6523V24.8554H99.5112V30.8317H106.307V24.8554Z" fill="#1D1D1D"/>
<path d="M121.295 24.8554V26.6261H117.157V38.941H115.318V26.6261H111.201V24.8554H121.295Z" fill="#1D1D1D"/>
<path d="M130.11 39.2025C127.991 39.2025 126.238 38.4983 124.853 37.0897C123.48 35.6811 122.794 33.9506 122.794 31.8982C122.794 29.8457 123.48 28.1152 124.853 26.7066C126.238 25.2981 127.991 24.5938 130.11 24.5938C131.389 24.5938 132.562 24.9023 133.628 25.5194C134.707 26.1365 135.546 26.9682 136.146 28.0146L134.527 28.9603C134.127 28.1822 133.528 27.5652 132.728 27.1091C131.942 26.6395 131.069 26.4048 130.11 26.4048C128.497 26.4048 127.178 26.928 126.152 27.9743C125.139 29.0207 124.633 30.3286 124.633 31.8982C124.633 33.4543 125.139 34.7555 126.152 35.8019C127.178 36.8482 128.497 37.3714 130.11 37.3714C131.069 37.3714 131.942 37.1434 132.728 36.6873C133.528 36.2177 134.127 35.6007 134.527 34.836L136.146 35.7616C135.56 36.808 134.727 37.6464 133.648 38.2769C132.568 38.894 131.389 39.2025 130.11 39.2025Z" fill="#1D1D1D"/>
<path d="M148.249 24.8554V26.6261H144.112V38.941H142.273V26.6261H138.155V24.8554H148.249Z" fill="#1D1D1D"/>
<path d="M159.284 31.6366C159.923 31.9451 160.43 32.3878 160.803 32.9646C161.189 33.5415 161.383 34.2055 161.383 34.9567C161.383 36.0836 160.989 37.0293 160.203 37.794C159.417 38.5586 158.458 38.941 157.325 38.941H151.288V24.8554H156.885C157.978 24.8554 158.904 25.2243 159.664 25.9621C160.423 26.6999 160.803 27.6121 160.803 28.6987C160.803 29.9463 160.297 30.9256 159.284 31.6366ZM156.885 26.606H153.147V30.9122H156.885C157.471 30.9122 157.965 30.7042 158.364 30.2884C158.764 29.8725 158.964 29.3628 158.964 28.7591C158.964 28.1688 158.757 27.6658 158.344 27.2499C157.945 26.8206 157.458 26.606 156.885 26.606ZM157.325 37.1903C157.951 37.1903 158.478 36.969 158.904 36.5263C159.33 36.0836 159.544 35.5403 159.544 34.8964C159.544 34.2659 159.324 33.7293 158.884 33.2866C158.458 32.8439 157.938 32.6226 157.325 32.6226H153.147V37.1903H157.325Z" fill="#1D1D1D"/>
<path d="M176.419 37.0696C175.019 38.4916 173.307 39.2025 171.282 39.2025C169.256 39.2025 167.544 38.4916 166.144 37.0696C164.745 35.6476 164.046 33.9238 164.046 31.8982C164.046 29.8591 164.745 28.1353 166.144 26.7267C167.544 25.3048 169.256 24.5938 171.282 24.5938C173.307 24.5938 175.019 25.3048 176.419 26.7267C177.831 28.1353 178.537 29.8591 178.537 31.8982C178.537 33.9238 177.831 35.6476 176.419 37.0696ZM167.424 35.8019C168.463 36.8482 169.749 37.3714 171.282 37.3714C172.814 37.3714 174.093 36.8482 175.119 35.8019C176.159 34.7421 176.678 33.4409 176.678 31.8982C176.678 30.342 176.159 29.0408 175.119 27.9944C174.093 26.9347 172.814 26.4048 171.282 26.4048C169.749 26.4048 168.463 26.9347 167.424 27.9944C166.398 29.0408 165.885 30.342 165.885 31.8982C165.885 33.4409 166.398 34.7421 167.424 35.8019Z" fill="#1D1D1D"/>
<path d="M66.1665 50.2318C67.3791 50.2318 68.4052 50.6476 69.2447 51.4794C70.0842 52.2977 70.504 53.3038 70.504 54.4977C70.504 55.7185 70.0842 56.738 69.2447 57.5563C68.4185 58.3746 67.3924 58.7838 66.1665 58.7838H60.9095V44.6982H69.3047V46.4689H62.7685V50.2318H66.1665ZM66.1665 57.0331C66.8594 57.0331 67.4457 56.7916 67.9255 56.3087C68.4185 55.8258 68.665 55.2221 68.665 54.4977C68.665 53.7867 68.4185 53.1898 67.9255 52.7068C67.4457 52.2239 66.8594 51.9824 66.1665 51.9824H62.7685V57.0331H66.1665Z" fill="#1D1D1D"/>
<path d="M72.0893 58.7838V57.0935C73.0088 57.2276 73.695 56.9727 74.1481 56.3288C74.6145 55.6715 74.8477 54.4575 74.8477 52.6867V44.6982H84.0824V58.7838H82.2234V46.4689H76.7066V52.6867C76.7066 53.9477 76.5867 55.0075 76.3468 55.866C76.1203 56.7112 75.7872 57.3484 75.3474 57.7776C74.921 58.2069 74.4413 58.502 73.9083 58.663C73.3886 58.8106 72.7822 58.8508 72.0893 58.7838Z" fill="#1D1D1D"/>
<path d="M99.7224 56.9124C98.3232 58.3344 96.6108 59.0453 94.5853 59.0453C92.5598 59.0453 90.8475 58.3344 89.4483 56.9124C88.0491 55.4904 87.3495 53.7666 87.3495 51.741C87.3495 49.7019 88.0491 47.9781 89.4483 46.5695C90.8475 45.1476 92.5598 44.4366 94.5853 44.4366C96.6108 44.4366 98.3232 45.1476 99.7224 46.5695C101.135 47.9781 101.841 49.7019 101.841 51.741C101.841 53.7666 101.135 55.4904 99.7224 56.9124ZM90.7276 55.6447C91.767 56.691 93.0529 57.2142 94.5853 57.2142C96.1178 57.2142 97.397 56.691 98.4231 55.6447C99.4625 54.5849 99.9822 53.2837 99.9822 51.741C99.9822 50.1848 99.4625 48.8836 98.4231 47.8372C97.397 46.7775 96.1178 46.2476 94.5853 46.2476C93.0529 46.2476 91.767 46.7775 90.7276 47.8372C89.7015 48.8836 89.1885 50.1848 89.1885 51.741C89.1885 53.2837 89.7015 54.5849 90.7276 55.6447Z" fill="#1D1D1D"/>
<path d="M112.931 44.6982V46.4689H106.934V58.7838H105.075V44.6982H112.931Z" fill="#1D1D1D"/>
<path d="M117.635 57.013H124.131V58.7838H115.776V44.6982H124.031V46.4689H117.635V50.7952H123.532V52.5458H117.635V57.013Z" fill="#1D1D1D"/>
<path d="M132.452 44.6982C133.745 44.6982 134.817 45.1341 135.67 46.0061C136.536 46.8647 136.969 47.9378 136.969 49.2257C136.969 50.5001 136.536 51.5733 135.67 52.4452C134.817 53.3172 133.745 53.7532 132.452 53.7532H129.234V58.7838H127.375V44.6982H132.452ZM132.452 52.0025C133.225 52.0025 133.865 51.741 134.371 51.2178C134.877 50.6812 135.13 50.0171 135.13 49.2257C135.13 48.4208 134.877 47.7567 134.371 47.2336C133.865 46.7104 133.225 46.4488 132.452 46.4488H129.234V52.0025H132.452Z" fill="#1D1D1D"/>
<path d="M151.7 56.9124C150.301 58.3344 148.589 59.0453 146.563 59.0453C144.538 59.0453 142.825 58.3344 141.426 56.9124C140.027 55.4904 139.327 53.7666 139.327 51.741C139.327 49.7019 140.027 47.9781 141.426 46.5695C142.825 45.1476 144.538 44.4366 146.563 44.4366C148.589 44.4366 150.301 45.1476 151.7 46.5695C153.113 47.9781 153.819 49.7019 153.819 51.741C153.819 53.7666 153.113 55.4904 151.7 56.9124ZM142.705 55.6447C143.745 56.691 145.031 57.2142 146.563 57.2142C148.095 57.2142 149.375 56.691 150.401 55.6447C151.44 54.5849 151.96 53.2837 151.96 51.741C151.96 50.1848 151.44 48.8836 150.401 47.8372C149.375 46.7775 148.095 46.2476 146.563 46.2476C145.031 46.2476 143.745 46.7775 142.705 47.8372C141.679 48.8836 141.166 50.1848 141.166 51.741C141.166 53.2837 141.679 54.5849 142.705 55.6447Z" fill="#1D1D1D"/>
<path d="M165.048 51.4794C165.688 51.7879 166.194 52.2306 166.568 52.8074C166.954 53.3843 167.147 54.0483 167.147 54.7995C167.147 55.9264 166.754 56.8721 165.968 57.6368C165.182 58.4014 164.222 58.7838 163.09 58.7838H157.053V44.6982H162.65C163.743 44.6982 164.669 45.0671 165.428 45.8049C166.188 46.5427 166.568 47.4549 166.568 48.5415C166.568 49.7891 166.061 50.7684 165.048 51.4794ZM162.65 46.4488H158.912V50.755H162.65C163.236 50.755 163.729 50.547 164.129 50.1312C164.529 49.7153 164.729 49.2055 164.729 48.6019C164.729 48.0116 164.522 47.5086 164.109 47.0927C163.709 46.6634 163.223 46.4488 162.65 46.4488ZM163.09 57.0331C163.716 57.0331 164.242 56.8118 164.669 56.3691C165.095 55.9264 165.308 55.3831 165.308 54.7392C165.308 54.1087 165.088 53.5721 164.649 53.1294C164.222 52.6867 163.703 52.4654 163.09 52.4654H158.912V57.0331H163.09Z" fill="#1D1D1D"/>
</svg>
