<svg width="187" height="159" viewBox="0 0 187 159" fill="none" xmlns="http://www.w3.org/2000/svg">
<g filter="url(#filter0_f)">
<path d="M98.4521 178.972H88.5474C55.8668 178.972 24.1768 153.924 24.1768 118.86C24.1768 98.8246 31.6028 88.8042 31.6028 88.8042C31.6028 88.8042 29.1291 78.7838 29.1291 68.7685C29.1291 38.7125 60.8192 13.6641 93.4998 13.6641C126.18 13.6641 157.87 43.7201 157.87 68.7685C157.87 78.7889 155.397 88.8042 155.397 88.8042C155.397 88.8042 162.823 98.8246 162.823 118.86C162.823 153.924 131.133 178.972 98.4521 178.972Z" fill="#BF6952"/>
<path d="M152.159 80.3222C152.159 61.1814 136.638 45.6606 117.497 45.6606C108.176 45.6606 99.7293 49.3611 93.4999 55.3441C87.2705 49.3561 78.8238 45.6606 69.5023 45.6606C50.3616 45.6606 34.8408 61.1814 34.8408 80.3222C34.8408 91.9313 40.5725 102.183 49.3309 108.473C46.8723 114.566 45.5047 121.273 45.5047 128.312C45.5047 156.292 66.9935 173.638 93.4949 173.638C119.996 173.638 141.485 156.292 141.485 128.312C141.485 121.268 140.117 114.566 137.659 108.473C146.427 102.183 152.159 91.9313 152.159 80.3222Z" fill="#D79E84"/>
<path d="M68.3612 103.556C73.9148 103.556 78.4168 96.8028 78.4168 88.4725C78.4168 80.1422 73.9148 73.3892 68.3612 73.3892C62.8077 73.3892 58.3057 80.1422 58.3057 88.4725C58.3057 96.8028 62.8077 103.556 68.3612 103.556Z" fill="#292F33"/>
<path d="M118.639 103.556C124.192 103.556 128.694 96.8028 128.694 88.4725C128.694 80.1422 124.192 73.3892 118.639 73.3892C113.085 73.3892 108.583 80.1422 108.583 88.4725C108.583 96.8028 113.085 103.556 118.639 103.556Z" fill="#292F33"/>
<path d="M93.5001 161.375C107.151 161.375 118.775 154.436 123.139 144.738C124.944 140.726 121.882 136.236 117.322 136.236H69.6785C65.1183 136.236 62.0564 140.726 63.8614 144.738C68.2255 154.436 79.8497 161.375 93.5001 161.375Z" fill="#642116"/>
<path d="M85.9584 118.946C88.7352 118.946 90.9862 116.557 90.9862 113.611C90.9862 110.665 88.7352 108.277 85.9584 108.277C83.1817 108.277 80.9307 110.665 80.9307 113.611C80.9307 116.557 83.1817 118.946 85.9584 118.946Z" fill="#642116"/>
<path d="M101.042 118.639C103.819 118.639 106.07 116.388 106.07 113.611C106.07 110.834 103.819 108.583 101.042 108.583C98.2652 108.583 96.0142 110.834 96.0142 113.611C96.0142 116.388 98.2652 118.639 101.042 118.639Z" fill="#642116"/>
<path d="M114.828 3.85384C114.828 3.85384 88.1659 -1.48064 77.502 14.5178C66.8381 30.5161 98.8298 19.8522 98.8298 19.8522C98.8298 19.8522 104.164 3.85384 114.828 3.85384Z" fill="#BF6952"/>
<path d="M48.2499 163.874C48.8784 167.187 57.2044 170.958 57.2044 170.958L53.2777 98.5078L43.2222 123.667C43.2222 123.667 47.6215 160.556 48.2499 163.874ZM138.75 163.874C137.805 167.504 129.951 170.802 129.951 170.802L133.727 98.5078L143.778 123.667C143.778 123.667 139.695 160.244 138.75 163.874Z" fill="#9B3C07"/>
<path d="M13.0552 184H53.2774L48.1893 104.395L28.0933 83.4395L13.0552 184ZM173.944 184H133.722L138.76 104.395L158.856 83.4395L173.944 184Z" fill="#BF6952"/>
<path d="M156.891 78.6825C156.891 78.6825 157.896 66.2337 162.909 60.8741C169.455 53.8704 177.338 59.2954 176.73 69.1197C174.518 104.747 166.695 114.536 156.529 120.383C146.367 126.235 132.45 125.139 117.724 110.971C102.998 96.8026 96.8186 88.0744 95.0589 81.8249C93.2992 75.5703 99.8655 70.4923 105.466 73.6749C110.504 76.5357 118.086 85.279 118.086 85.279C118.086 85.279 108.297 71.7241 106.909 66.4851C104.989 59.2401 113.556 54.9162 118.207 58.9083C122.792 62.845 132.244 74.7759 132.244 74.7759C132.244 74.7759 124.17 62.3875 123.426 56.4195C122.692 50.527 129.655 45.3182 135.809 50.4566C141.958 55.6 151.843 70.4219 156.891 78.6825ZM30.1101 78.6825C30.1101 78.6825 29.1045 66.2337 24.0918 60.8741C17.5457 53.8704 9.6621 59.2954 10.2705 69.1197C12.4827 104.747 20.3059 114.536 30.4721 120.383C40.6332 126.235 54.5501 125.139 69.2765 110.971C84.0028 96.8026 90.182 88.0744 91.9417 81.8249C93.7014 75.5703 87.1351 70.4923 81.5342 73.6749C76.4963 76.5357 68.9145 85.279 68.9145 85.279C68.9145 85.279 78.7035 71.7241 80.0912 66.4851C82.0118 59.2401 73.4445 54.9162 68.7938 58.9083C64.2085 62.845 54.7562 74.7759 54.7562 74.7759C54.7562 74.7759 62.8308 62.3875 63.575 56.4195C64.309 50.527 57.3455 45.3182 51.1915 50.4566C45.0375 55.595 35.158 70.4219 30.1101 78.6825Z" fill="#D79E84"/>
<path d="M144.19 126.242C134.99 126.242 125.216 121.671 115.98 112.787C101.927 99.2726 94.7271 89.931 92.6406 82.51C91.5496 78.6335 92.8115 74.6968 95.9388 72.2483C98.9153 69.9154 102.787 69.5333 106.175 71.2075C105.386 69.659 104.778 68.2512 104.481 67.135C103.345 62.8564 104.934 58.7587 108.619 56.446C112.269 54.1533 116.779 54.3745 119.846 57.0091C120.268 57.3761 120.731 57.7984 121.213 58.271C121.083 57.7331 120.982 57.2202 120.922 56.7376C120.434 52.836 122.465 48.9294 125.97 47.0138C129.625 45.0228 133.899 45.601 137.408 48.5322C143.039 53.2382 150.892 64.6764 155.458 71.7153C156.398 67.5221 158.087 62.3435 161.064 59.1559C164.488 55.4907 168.786 54.2689 172.587 55.903C177.007 57.8085 179.616 63.0575 179.229 69.2718C177.037 104.622 169.395 115.874 157.77 122.566C153.512 125.03 148.922 126.242 144.19 126.242ZM101.846 75.2096C100.856 75.2096 99.8806 75.5415 99.0359 76.2051C97.5226 77.3917 96.9394 79.2369 97.4723 81.1474C99.2572 87.4824 106.447 96.6481 119.459 109.162C131.897 121.118 144.608 124.331 155.272 118.207C163.608 113.406 171.939 105.648 174.216 68.9651C174.503 64.3345 172.607 61.3883 170.596 60.5235C168.811 59.7391 166.72 60.4833 164.739 62.5949C161.134 66.4563 159.656 75.6671 159.394 78.8899C159.304 79.976 158.53 80.881 157.469 81.1323C156.413 81.3888 155.312 80.9212 154.744 79.9961C149.902 72.0773 140.128 57.351 134.19 52.3936C131.576 50.2115 129.429 50.85 128.383 51.4282C126.669 52.3634 125.678 54.2438 125.914 56.1141C126.467 60.5386 132.189 70.0964 134.351 73.4097C135.085 74.5359 134.804 76.0342 133.713 76.8235C132.632 77.6079 131.108 77.4017 130.274 76.3459C130.178 76.2303 120.917 64.5558 116.563 60.8251C114.989 59.4676 112.717 59.8095 111.284 60.7045C110.429 61.2425 108.528 62.8161 109.333 65.8479C110.374 69.7746 117.468 80.1519 120.117 83.8172C120.902 84.9082 120.696 86.4266 119.64 87.2612C118.589 88.0858 117.061 87.955 116.181 86.9394C114.154 84.5965 108.046 78.0403 104.225 75.8733C103.455 75.4258 102.646 75.2096 101.846 75.2096Z" fill="#BF6952"/>
<path d="M42.8101 126.242C38.0739 126.242 33.4886 125.03 29.215 122.571C17.5958 115.879 9.95358 104.632 7.76147 69.2768C7.37433 63.0625 9.98375 57.8135 14.4082 55.908C18.179 54.279 22.4979 55.4907 25.9268 59.1609C28.9033 62.3435 30.5976 67.5221 31.5378 71.7203C36.1031 64.6865 43.9464 53.2483 49.5876 48.5373C53.102 45.596 57.3756 45.0228 61.0207 47.0189C64.5301 48.9294 66.5613 52.841 66.0686 56.7426C66.0083 57.2253 65.9077 57.7381 65.777 58.2761C66.2647 57.8034 66.7222 57.3761 67.1496 57.0141C70.2065 54.3896 74.7264 54.1633 78.3716 56.451C82.062 58.7637 83.6507 62.8614 82.5195 67.14C82.2229 68.2562 81.6145 69.664 80.8302 71.2176C84.2088 69.5483 88.0852 69.9254 91.0567 72.2583C94.189 74.7068 95.4509 78.6436 94.3599 82.52C92.2684 89.9511 85.0686 99.2876 71.0159 112.797C61.7849 121.671 52.0109 126.242 42.8101 126.242ZM17.8522 60.2218C17.3494 60.2218 16.8668 60.3224 16.3942 60.5235C14.3881 61.3882 12.4926 64.3345 12.7792 68.9651C15.0568 105.648 23.3878 113.406 31.7239 118.207C42.3878 124.346 55.093 121.128 67.5317 109.162C80.5436 96.6531 87.7333 87.4874 89.5182 81.1474C90.0561 79.2369 89.4729 77.3866 87.9596 76.2051C86.4361 75.0085 84.4954 74.8778 82.7709 75.8632C78.9447 78.0402 72.841 84.5864 70.8098 86.9294C69.9249 87.945 68.3965 88.0807 67.3507 87.2511C66.2999 86.4165 66.0887 84.8981 66.8731 83.8071C69.5177 80.1419 76.6169 69.7645 77.6627 65.8378C78.4671 62.8061 76.5616 61.2324 75.7069 60.6944C74.279 59.7944 72.0165 59.4475 70.4327 60.8151C66.0837 64.5507 56.8225 76.2202 56.732 76.3358C55.8974 77.3816 54.3841 77.5978 53.293 76.8135C52.202 76.0291 51.9204 74.5258 52.6545 73.3996C54.8114 70.0863 60.5381 60.5235 61.0861 56.1041C61.3174 54.2337 60.3269 52.3533 58.6174 51.4182C57.5717 50.85 55.4198 50.2065 52.8154 52.3835C47.6368 56.7074 38.5315 69.7243 32.2568 79.986C31.6887 80.9161 30.6027 81.3837 29.5317 81.1223C28.4759 80.8709 27.6966 79.9659 27.6061 78.8799C27.3447 75.6571 25.8665 66.4462 22.2616 62.5849C20.7935 61.0313 19.2751 60.2218 17.8522 60.2218Z" fill="#BF6952"/>
<path d="M133.662 52.0602C133.843 52.191 134.009 52.2362 134.195 52.3921C140.133 57.3495 149.907 72.0758 154.748 79.9946C155.201 80.7286 156 81.0504 156.83 81.0755C157.916 75.7863 158.203 69.5971 158.167 63.7046C156.925 66.309 156.031 69.1698 155.462 71.7138C150.897 64.6749 143.044 53.2367 137.413 48.5307C134.064 45.7303 130.032 45.1521 126.497 46.8213C129.876 47.9576 132.128 49.9134 133.662 52.0602ZM32.2517 79.9946C38.5263 69.7278 47.6316 56.716 52.8103 52.3921C53.1572 52.1005 53.4689 51.9798 53.7957 51.7837C55.299 49.7726 57.471 47.9676 60.6285 46.8766C57.0688 45.1219 52.9762 45.6951 49.5824 48.5358C43.9413 53.2468 36.0929 64.685 31.5327 71.7188C30.9998 69.3457 30.1903 66.686 29.0791 64.2275C29.0641 69.9642 29.3657 75.9321 30.4115 81.0655C31.1556 80.9649 31.8495 80.6532 32.2517 79.9946Z" fill="#9B3C07"/>
</g>
<defs>
<filter id="filter0_f" x="0" y="0" width="187" height="187" filterUnits="userSpaceOnUse" color-interpolation-filters="sRGB">
<feFlood flood-opacity="0" result="BackgroundImageFix"/>
<feBlend mode="normal" in="SourceGraphic" in2="BackgroundImageFix" result="shape"/>
<feGaussianBlur stdDeviation="1.5" result="effect1_foregroundBlur"/>
</filter>
</defs>
</svg>
