<svg width="36" height="36" viewBox="0 0 36 36" fill="none" xmlns="http://www.w3.org/2000/svg">
<g clip-path="url(#clip0)">
<path d="M29.9999 22C26.9999 22 23.3119 29.094 22.9999 32C22.5789 35.915 24.9999 36 24.9999 36H35.9999V26C35.9999 26 32.5619 22 29.9999 22Z" fill="#50A5E6"/>
<path d="M28.9916 29.3083C30.6064 26.5113 31.2805 23.8772 30.497 23.4248C29.7136 22.9725 27.7693 24.8733 26.1545 27.6703C24.5396 30.4674 23.8656 33.1015 24.649 33.5539C25.4325 34.0062 27.3767 32.1054 28.9916 29.3083Z" fill="#1C6399"/>
<path d="M20.0862 0C21.2672 0 22.2242 0.957 22.2242 2.138C22.2242 2.927 22.8922 12.962 22.8922 12.962L17.9482 18V2.138C17.9482 0.957 18.9052 0 20.0862 0Z" fill="#F9CA55"/>
<path d="M18.875 4.32298C18.875 3.22398 19.727 2.33398 20.778 2.33398C21.829 2.33398 22.681 3.22498 22.681 4.32298C22.681 4.32298 23.216 10.265 23.873 13.693C24.751 15.559 25.242 18.375 25.134 19.941C25.188 20.339 30.759 24.947 30.759 24.947C30.478 26.76 28.5 31.102 26 33.106L22.479 30.182C19.594 29.778 18.021 26.851 18.021 25.918C18.021 22.934 18.875 4.32298 18.875 4.32298Z" fill="#FFDC5D"/>
<path d="M6 22C9 22 12.688 29.094 13 32C13.421 35.915 11 36 11 36H0V26C0 26 3.438 22 6 22Z" fill="#50A5E6"/>
<path d="M11.3496 33.5527C12.133 33.1004 11.459 30.4662 9.84411 27.6692C8.22923 24.8721 6.285 22.9714 5.50156 23.4237C4.71811 23.876 5.39213 26.5101 7.00701 29.3072C8.62189 32.1042 10.5661 34.005 11.3496 33.5527Z" fill="#1C6399"/>
<path d="M16.0609 0.0109849C14.7949 -0.116015 13.7279 0.874985 13.7279 2.11399C13.7279 2.89399 13.5439 12.433 13.5439 12.433L17.8949 18L17.9569 2.23498C17.9569 1.12898 17.1619 0.120985 16.0609 0.0109849Z" fill="#F9CA55"/>
<path d="M17.1252 4.32298C17.1252 3.22398 16.2732 2.33398 15.2222 2.33398C14.1712 2.33398 13.3192 3.22498 13.3192 4.32298C13.3192 4.32298 12.7842 10.265 12.1272 13.693C11.2492 15.559 10.7582 18.375 10.8662 19.941C10.8122 20.339 5.24121 24.947 5.24121 24.947C5.52221 26.76 7.50021 31.102 10.0002 33.106L13.5212 30.182C16.4062 29.778 17.9792 26.851 17.9792 25.918C17.9792 22.934 17.1252 4.32298 17.1252 4.32298Z" fill="#FFDC5D"/>
<path d="M17.958 25.823C17.544 25.823 17.208 25.487 17.208 25.073V2.79199C17.208 2.37799 17.544 2.04199 17.958 2.04199C18.372 2.04199 18.708 2.37799 18.708 2.79199V25.074C18.709 25.487 18.373 25.823 17.958 25.823Z" fill="#F9CA55"/>
</g>
<defs>
<clipPath id="clip0">
<rect width="36" height="36" fill="white"/>
</clipPath>
</defs>
</svg>
