<svg width="98" height="98" viewBox="0 0 98 98" fill="none" xmlns="http://www.w3.org/2000/svg">
<g filter="url(#filter0_d)">
<circle cx="48.9677" cy="48.9677" r="33.9677" fill="black"/>
<path d="M61.1289 40.5251C58.0081 40.5251 55.4692 37.9632 55.4692 34.8143C55.4692 34.3288 55.079 33.9354 54.5981 33.9354H49.933C49.4519 33.9354 49.0619 34.3288 49.0619 34.8143V54.1131C49.0619 55.9643 47.5693 57.4704 45.7345 57.4704C43.8998 57.4704 42.4072 55.9643 42.4072 54.1131C42.4072 52.2617 43.8998 50.7557 45.7345 50.7557C46.2156 50.7557 46.6055 50.3622 46.6055 49.8768V45.1696C46.6055 44.6843 46.2156 44.2907 45.7345 44.2907C40.3668 44.2907 36 48.6971 36 54.1131C36 59.5292 40.3668 63.9354 45.7345 63.9354C51.1021 63.9354 55.4692 59.5292 55.4692 54.1131V45.5706C57.2029 46.5033 59.1319 46.9901 61.1289 46.9901C61.6101 46.9901 62 46.5966 62 46.1112V41.404C62 40.9188 61.6101 40.5251 61.1289 40.5251ZM60.2579 45.1959C58.3983 45.0398 56.6324 44.3843 55.1067 43.2769C54.8415 43.0842 54.4917 43.0577 54.2007 43.2083C53.9099 43.3584 53.727 43.6606 53.727 43.9904V54.1131C53.727 58.5598 50.1414 62.1776 45.7345 62.1776C41.3275 62.1776 37.7421 58.5598 37.7421 54.1131C37.7421 49.9633 40.8647 46.5353 44.8634 46.0961V49.0734C42.4816 49.4913 40.6651 51.592 40.6651 54.1131C40.6651 56.9336 42.9392 59.2284 45.7345 59.2284C48.53 59.2284 50.804 56.9336 50.804 54.1131V35.6932H53.7779C54.1769 39.1104 56.8712 41.829 60.2579 42.2316V45.1959Z" fill="white"/>
<path fill-rule="evenodd" clip-rule="evenodd" d="M55.9692 34.8143C55.9692 37.6913 58.2885 40.0251 61.1289 40.0251C61.8905 40.0251 62.5 40.647 62.5 41.404V46.1112C62.5 46.8686 61.8904 47.4901 61.1289 47.4901C59.3282 47.4901 57.5791 47.1098 55.9692 46.3765V54.1131C55.9692 59.8011 51.3824 64.4354 45.7345 64.4354C40.0865 64.4354 35.5 59.8011 35.5 54.1131C35.5 48.4252 40.0865 43.7907 45.7345 43.7907C46.496 43.7907 47.1055 44.4125 47.1055 45.1696V49.8768C47.1055 50.6341 46.4959 51.2557 45.7345 51.2557C44.1802 51.2557 42.9072 52.5336 42.9072 54.1131C42.9072 55.6924 44.1802 56.9704 45.7345 56.9704C47.289 56.9704 48.5619 55.6924 48.5619 54.1131V34.8143C48.5619 34.0569 49.1715 33.4354 49.933 33.4354H54.5981C55.3593 33.4354 55.9692 34.0568 55.9692 34.8143ZM55.4692 54.1131C55.4692 59.5292 51.1021 63.9354 45.7345 63.9354C40.3668 63.9354 36 59.5292 36 54.1131C36 48.6971 40.3668 44.2907 45.7345 44.2907C46.2156 44.2907 46.6055 44.6843 46.6055 45.1696V49.8768C46.6055 50.3622 46.2156 50.7557 45.7345 50.7557C43.8998 50.7557 42.4072 52.2617 42.4072 54.1131C42.4072 55.9643 43.8998 57.4704 45.7345 57.4704C47.5693 57.4704 49.0619 55.9643 49.0619 54.1131V34.8143C49.0619 34.3288 49.4519 33.9354 49.933 33.9354H54.5981C55.079 33.9354 55.4692 34.3288 55.4692 34.8143C55.4692 37.9632 58.0081 40.5251 61.1289 40.5251C61.6101 40.5251 62 40.9188 62 41.404V46.1112C62 46.5966 61.6101 46.9901 61.1289 46.9901C59.3219 46.9901 57.5705 46.5915 55.9692 45.8246C55.8008 45.744 55.6341 45.6593 55.4692 45.5706V54.1131ZM60.2579 45.1959V42.2316C56.8712 41.829 54.1769 39.1104 53.7779 35.6932H50.804V54.1131C50.804 56.9336 48.53 59.2284 45.7345 59.2284C42.9392 59.2284 40.6651 56.9336 40.6651 54.1131C40.6651 51.592 42.4816 49.4913 44.8634 49.0734V46.0961C44.6951 46.1146 44.5284 46.1383 44.3634 46.1672C40.6075 46.8251 37.7421 50.1379 37.7421 54.1131C37.7421 58.5598 41.3275 62.1776 45.7345 62.1776C50.1414 62.1776 53.727 58.5598 53.727 54.1131V43.9904C53.727 43.6606 53.9099 43.3584 54.2007 43.2083C54.4917 43.0577 54.8415 43.0842 55.1067 43.2769C56.495 44.2846 58.0822 44.9181 59.7579 45.1416C59.9237 45.1637 60.0904 45.1818 60.2579 45.1959ZM59.7579 44.6369V42.6629C56.4932 42.0845 53.9168 39.4812 53.3454 36.1932H51.304V54.1131C51.304 57.2055 48.8104 59.7284 45.7345 59.7284C42.6588 59.7284 40.1651 57.2055 40.1651 54.1131C40.1651 51.4954 41.9505 49.288 44.3634 48.67V46.6754C40.8879 47.327 38.2421 50.4122 38.2421 54.1131C38.2421 58.2879 41.6078 61.6776 45.7345 61.6776C49.8611 61.6776 53.227 58.2879 53.227 54.1131V43.9904C53.227 43.4757 53.5123 43.0012 53.9709 42.7642C54.43 42.5266 54.9823 42.5686 55.4004 42.8723C56.7034 43.818 58.189 44.4167 59.7579 44.6369Z" fill="white"/>
</g>
<defs>
<filter id="filter0_d" x="0" y="0" width="97.9354" height="97.9354" filterUnits="userSpaceOnUse" color-interpolation-filters="sRGB">
<feFlood flood-opacity="0" result="BackgroundImageFix"/>
<feColorMatrix in="SourceAlpha" type="matrix" values="0 0 0 0 0 0 0 0 0 0 0 0 0 0 0 0 0 0 127 0"/>
<feOffset/>
<feGaussianBlur stdDeviation="7.5"/>
<feColorMatrix type="matrix" values="0 0 0 0 1 0 0 0 0 1 0 0 0 0 1 0 0 0 1 0"/>
<feBlend mode="normal" in2="BackgroundImageFix" result="effect1_dropShadow"/>
<feBlend mode="normal" in="SourceGraphic" in2="effect1_dropShadow" result="shape"/>
</filter>
</defs>
</svg>
