<svg width="68" height="68" viewBox="0 0 68 68" fill="none" xmlns="http://www.w3.org/2000/svg">
<circle cx="33.9677" cy="33.9677" r="33.9677" fill="#CFCFCF"/>
<path d="M46.1289 25.5251C43.0081 25.5251 40.4692 22.9632 40.4692 19.8143C40.4692 19.3288 40.079 18.9354 39.5981 18.9354H34.933C34.4519 18.9354 34.0619 19.3288 34.0619 19.8143V39.1131C34.0619 40.9643 32.5693 42.4704 30.7345 42.4704C28.8998 42.4704 27.4072 40.9643 27.4072 39.1131C27.4072 37.2617 28.8998 35.7557 30.7345 35.7557C31.2156 35.7557 31.6055 35.3622 31.6055 34.8768V30.1696C31.6055 29.6843 31.2156 29.2907 30.7345 29.2907C25.3668 29.2907 21 33.6971 21 39.1131C21 44.5292 25.3668 48.9354 30.7345 48.9354C36.1021 48.9354 40.4692 44.5292 40.4692 39.1131V30.5706C42.2029 31.5033 44.1319 31.9901 46.1289 31.9901C46.6101 31.9901 47 31.5966 47 31.1112V26.404C47 25.9188 46.6101 25.5251 46.1289 25.5251ZM45.2579 30.1959C43.3983 30.0398 41.6324 29.3843 40.1067 28.2769C39.8415 28.0842 39.4917 28.0577 39.2007 28.2083C38.9099 28.3584 38.727 28.6606 38.727 28.9904V39.1131C38.727 43.5598 35.1414 47.1776 30.7345 47.1776C26.3275 47.1776 22.7421 43.5598 22.7421 39.1131C22.7421 34.9633 25.8647 31.5353 29.8634 31.0961V34.0734C27.4816 34.4913 25.6651 36.592 25.6651 39.1131C25.6651 41.9336 27.9392 44.2284 30.7345 44.2284C33.53 44.2284 35.804 41.9336 35.804 39.1131V20.6932H38.7779C39.1769 24.1104 41.8712 26.829 45.2579 27.2316V30.1959Z" fill="#BABABA"/>
<path fill-rule="evenodd" clip-rule="evenodd" d="M40.9692 19.8143C40.9692 22.6913 43.2885 25.0251 46.1289 25.0251C46.8905 25.0251 47.5 25.647 47.5 26.404V31.1112C47.5 31.8686 46.8904 32.4901 46.1289 32.4901C44.3282 32.4901 42.5791 32.1098 40.9692 31.3765V39.1131C40.9692 44.8011 36.3824 49.4354 30.7345 49.4354C25.0865 49.4354 20.5 44.8011 20.5 39.1131C20.5 33.4252 25.0865 28.7907 30.7345 28.7907C31.496 28.7907 32.1055 29.4125 32.1055 30.1696V34.8768C32.1055 35.6341 31.4959 36.2557 30.7345 36.2557C29.1802 36.2557 27.9072 37.5336 27.9072 39.1131C27.9072 40.6924 29.1802 41.9704 30.7345 41.9704C32.289 41.9704 33.5619 40.6924 33.5619 39.1131V19.8143C33.5619 19.0569 34.1715 18.4354 34.933 18.4354H39.5981C40.3593 18.4354 40.9692 19.0568 40.9692 19.8143ZM40.4692 39.1131C40.4692 44.5292 36.1021 48.9354 30.7345 48.9354C25.3668 48.9354 21 44.5292 21 39.1131C21 33.6971 25.3668 29.2907 30.7345 29.2907C31.2156 29.2907 31.6055 29.6843 31.6055 30.1696V34.8768C31.6055 35.3622 31.2156 35.7557 30.7345 35.7557C28.8998 35.7557 27.4072 37.2617 27.4072 39.1131C27.4072 40.9643 28.8998 42.4704 30.7345 42.4704C32.5693 42.4704 34.0619 40.9643 34.0619 39.1131V19.8143C34.0619 19.3288 34.4519 18.9354 34.933 18.9354H39.5981C40.079 18.9354 40.4692 19.3288 40.4692 19.8143C40.4692 22.9632 43.0081 25.5251 46.1289 25.5251C46.6101 25.5251 47 25.9188 47 26.404V31.1112C47 31.5966 46.6101 31.9901 46.1289 31.9901C44.3219 31.9901 42.5705 31.5915 40.9692 30.8246C40.8008 30.744 40.6341 30.6593 40.4692 30.5706V39.1131ZM45.2579 30.1959V27.2316C41.8712 26.829 39.1769 24.1104 38.7779 20.6932H35.804V39.1131C35.804 41.9336 33.53 44.2284 30.7345 44.2284C27.9392 44.2284 25.6651 41.9336 25.6651 39.1131C25.6651 36.592 27.4816 34.4913 29.8634 34.0734V31.0961C29.6951 31.1146 29.5284 31.1383 29.3634 31.1672C25.6075 31.8251 22.7421 35.1379 22.7421 39.1131C22.7421 43.5598 26.3275 47.1776 30.7345 47.1776C35.1414 47.1776 38.727 43.5598 38.727 39.1131V28.9904C38.727 28.6606 38.9099 28.3584 39.2007 28.2083C39.4917 28.0577 39.8415 28.0842 40.1067 28.2769C41.495 29.2846 43.0822 29.9181 44.7579 30.1416C44.9237 30.1637 45.0904 30.1818 45.2579 30.1959ZM44.7579 29.6369V27.6629C41.4932 27.0845 38.9168 24.4812 38.3454 21.1932H36.304V39.1131C36.304 42.2055 33.8104 44.7284 30.7345 44.7284C27.6588 44.7284 25.1651 42.2055 25.1651 39.1131C25.1651 36.4954 26.9505 34.288 29.3634 33.67V31.6754C25.8879 32.327 23.2421 35.4122 23.2421 39.1131C23.2421 43.2879 26.6078 46.6776 30.7345 46.6776C34.8611 46.6776 38.227 43.2879 38.227 39.1131V28.9904C38.227 28.4757 38.5123 28.0012 38.9709 27.7642C39.43 27.5266 39.9823 27.5686 40.4004 27.8723C41.7034 28.818 43.189 29.4167 44.7579 29.6369Z" fill="#BABABA"/>
</svg>
