<svg width="88" height="88" viewBox="0 0 88 88" fill="none" xmlns="http://www.w3.org/2000/svg">
<g filter="url(#filter0_d)">
<circle cx="43.9677" cy="40.9677" r="32.9677" fill="white" stroke="#0066FF" stroke-width="2"/>
<path d="M56.1289 32.5251C53.0081 32.5251 50.4692 29.9632 50.4692 26.8143C50.4692 26.3288 50.079 25.9354 49.5981 25.9354H44.933C44.4519 25.9354 44.0619 26.3288 44.0619 26.8143V46.1131C44.0619 47.9643 42.5693 49.4704 40.7345 49.4704C38.8998 49.4704 37.4072 47.9643 37.4072 46.1131C37.4072 44.2617 38.8998 42.7557 40.7345 42.7557C41.2156 42.7557 41.6055 42.3622 41.6055 41.8768V37.1696C41.6055 36.6843 41.2156 36.2907 40.7345 36.2907C35.3668 36.2907 31 40.6971 31 46.1131C31 51.5292 35.3668 55.9354 40.7345 55.9354C46.1021 55.9354 50.4692 51.5292 50.4692 46.1131V37.5706C52.2029 38.5033 54.1319 38.9901 56.1289 38.9901C56.6101 38.9901 57 38.5966 57 38.1112V33.404C57 32.9188 56.6101 32.5251 56.1289 32.5251ZM55.2579 37.1959C53.3983 37.0398 51.6324 36.3843 50.1067 35.2769C49.8415 35.0842 49.4917 35.0577 49.2007 35.2083C48.9099 35.3584 48.727 35.6606 48.727 35.9904V46.1131C48.727 50.5598 45.1414 54.1776 40.7345 54.1776C36.3275 54.1776 32.7421 50.5598 32.7421 46.1131C32.7421 41.9633 35.8647 38.5353 39.8634 38.0961V41.0734C37.4816 41.4913 35.6651 43.592 35.6651 46.1131C35.6651 48.9336 37.9392 51.2284 40.7345 51.2284C43.53 51.2284 45.804 48.9336 45.804 46.1131V27.6932H48.7779C49.1769 31.1104 51.8712 33.829 55.2579 34.2316V37.1959Z" fill="#BABABA"/>
<path fill-rule="evenodd" clip-rule="evenodd" d="M50.9692 26.8143C50.9692 29.6913 53.2885 32.0251 56.1289 32.0251C56.8905 32.0251 57.5 32.647 57.5 33.404V38.1112C57.5 38.8686 56.8904 39.4901 56.1289 39.4901C54.3282 39.4901 52.5791 39.1098 50.9692 38.3765V46.1131C50.9692 51.8011 46.3824 56.4354 40.7345 56.4354C35.0865 56.4354 30.5 51.8011 30.5 46.1131C30.5 40.4252 35.0865 35.7907 40.7345 35.7907C41.496 35.7907 42.1055 36.4125 42.1055 37.1696V41.8768C42.1055 42.6341 41.4959 43.2557 40.7345 43.2557C39.1802 43.2557 37.9072 44.5336 37.9072 46.1131C37.9072 47.6924 39.1802 48.9704 40.7345 48.9704C42.289 48.9704 43.5619 47.6924 43.5619 46.1131V26.8143C43.5619 26.0569 44.1715 25.4354 44.933 25.4354H49.5981C50.3593 25.4354 50.9692 26.0568 50.9692 26.8143ZM50.4692 46.1131C50.4692 51.5292 46.1021 55.9354 40.7345 55.9354C35.3668 55.9354 31 51.5292 31 46.1131C31 40.6971 35.3668 36.2907 40.7345 36.2907C41.2156 36.2907 41.6055 36.6843 41.6055 37.1696V41.8768C41.6055 42.3622 41.2156 42.7557 40.7345 42.7557C38.8998 42.7557 37.4072 44.2617 37.4072 46.1131C37.4072 47.9643 38.8998 49.4704 40.7345 49.4704C42.5693 49.4704 44.0619 47.9643 44.0619 46.1131V26.8143C44.0619 26.3288 44.4519 25.9354 44.933 25.9354H49.5981C50.079 25.9354 50.4692 26.3288 50.4692 26.8143C50.4692 29.9632 53.0081 32.5251 56.1289 32.5251C56.6101 32.5251 57 32.9188 57 33.404V38.1112C57 38.5966 56.6101 38.9901 56.1289 38.9901C54.3219 38.9901 52.5705 38.5915 50.9692 37.8246C50.8008 37.744 50.6341 37.6593 50.4692 37.5706V46.1131ZM55.2579 37.1959V34.2316C51.8712 33.829 49.1769 31.1104 48.7779 27.6932H45.804V46.1131C45.804 48.9336 43.53 51.2284 40.7345 51.2284C37.9392 51.2284 35.6651 48.9336 35.6651 46.1131C35.6651 43.592 37.4816 41.4913 39.8634 41.0734V38.0961C39.6951 38.1146 39.5284 38.1383 39.3634 38.1672C35.6075 38.8251 32.7421 42.1379 32.7421 46.1131C32.7421 50.5598 36.3275 54.1776 40.7345 54.1776C45.1414 54.1776 48.727 50.5598 48.727 46.1131V35.9904C48.727 35.6606 48.9099 35.3584 49.2007 35.2083C49.4917 35.0577 49.8415 35.0842 50.1067 35.2769C51.495 36.2846 53.0822 36.9181 54.7579 37.1416C54.9237 37.1637 55.0904 37.1818 55.2579 37.1959ZM54.7579 36.6369V34.6629C51.4932 34.0845 48.9168 31.4812 48.3454 28.1932H46.304V46.1131C46.304 49.2055 43.8104 51.7284 40.7345 51.7284C37.6588 51.7284 35.1651 49.2055 35.1651 46.1131C35.1651 43.4954 36.9505 41.288 39.3634 40.67V38.6754C35.8879 39.327 33.2421 42.4122 33.2421 46.1131C33.2421 50.2879 36.6078 53.6776 40.7345 53.6776C44.8611 53.6776 48.227 50.2879 48.227 46.1131V35.9904C48.227 35.4757 48.5123 35.0012 48.9709 34.7642C49.43 34.5266 49.9823 34.5686 50.4004 34.8723C51.7034 35.818 53.189 36.4167 54.7579 36.6369Z" fill="#BABABA"/>
</g>
<defs>
<filter id="filter0_d" x="0" y="0" width="87.9354" height="87.9354" filterUnits="userSpaceOnUse" color-interpolation-filters="sRGB">
<feFlood flood-opacity="0" result="BackgroundImageFix"/>
<feColorMatrix in="SourceAlpha" type="matrix" values="0 0 0 0 0 0 0 0 0 0 0 0 0 0 0 0 0 0 127 0"/>
<feOffset dy="3"/>
<feGaussianBlur stdDeviation="5"/>
<feColorMatrix type="matrix" values="0 0 0 0 0 0 0 0 0 0 0 0 0 0 0 0 0 0 0.15 0"/>
<feBlend mode="normal" in2="BackgroundImageFix" result="effect1_dropShadow"/>
<feBlend mode="normal" in="SourceGraphic" in2="effect1_dropShadow" result="shape"/>
</filter>
</defs>
</svg>
