<svg width="50" height="50" viewBox="0 0 50 50" fill="none" xmlns="http://www.w3.org/2000/svg">
<g filter="url(#filter0_d)">
<path d="M37.1289 16.5897C34.0081 16.5897 31.4692 14.0279 31.4692 10.8789C31.4692 10.3934 31.079 10 30.5981 10H25.933C25.4519 10 25.0619 10.3934 25.0619 10.8789V30.1778C25.0619 32.029 23.5693 33.535 21.7345 33.535C19.8998 33.535 18.4072 32.029 18.4072 30.1778C18.4072 28.3263 19.8998 26.8203 21.7345 26.8203C22.2156 26.8203 22.6055 26.4268 22.6055 25.9414V21.2342C22.6055 20.749 22.2156 20.3553 21.7345 20.3553C16.3668 20.3553 12 24.7617 12 30.1778C12 35.5938 16.3668 40 21.7345 40C27.1021 40 31.4692 35.5938 31.4692 30.1778V21.6352C33.2029 22.5679 35.1319 23.0547 37.1289 23.0547C37.6101 23.0547 38 22.6613 38 22.1758V17.4686C38 16.9834 37.6101 16.5897 37.1289 16.5897ZM36.2579 21.2605C34.3983 21.1044 32.6324 20.4489 31.1067 19.3416C30.8415 19.1489 30.4917 19.1223 30.2007 19.2729C29.9099 19.4231 29.727 19.7252 29.727 20.055V30.1778C29.727 34.6245 26.1414 38.2422 21.7345 38.2422C17.3275 38.2422 13.7421 34.6245 13.7421 30.1778C13.7421 26.0279 16.8647 22.5999 20.8634 22.1607V25.138C18.4816 25.556 16.6651 27.6566 16.6651 30.1778C16.6651 32.9983 18.9392 35.293 21.7345 35.293C24.53 35.293 26.804 32.9983 26.804 30.1778V11.7578H29.7779C30.1769 15.175 32.8712 17.8937 36.2579 18.2963V21.2605Z" fill="black"/>
<path fill-rule="evenodd" clip-rule="evenodd" d="M31.9692 10.8789C31.9692 13.756 34.2885 16.0897 37.1289 16.0897C37.8905 16.0897 38.5 16.7116 38.5 17.4686V22.1758C38.5 22.9332 37.8904 23.5547 37.1289 23.5547C35.3282 23.5547 33.5791 23.1744 31.9692 22.4411V30.1778C31.9692 35.8657 27.3824 40.5 21.7345 40.5C16.0865 40.5 11.5 35.8657 11.5 30.1778C11.5 24.4898 16.0865 19.8553 21.7345 19.8553C22.496 19.8553 23.1055 20.4772 23.1055 21.2342V25.9414C23.1055 26.6988 22.4959 27.3203 21.7345 27.3203C20.1802 27.3203 18.9072 28.5982 18.9072 30.1778C18.9072 31.7571 20.1802 33.035 21.7345 33.035C23.289 33.035 24.5619 31.757 24.5619 30.1778V10.8789C24.5619 10.1215 25.1715 9.5 25.933 9.5H30.5981C31.3593 9.5 31.9692 10.1215 31.9692 10.8789ZM31.4692 30.1778C31.4692 35.5938 27.1021 40 21.7345 40C16.3668 40 12 35.5938 12 30.1778C12 24.7617 16.3668 20.3553 21.7345 20.3553C22.2156 20.3553 22.6055 20.749 22.6055 21.2342V25.9414C22.6055 26.4268 22.2156 26.8203 21.7345 26.8203C19.8998 26.8203 18.4072 28.3263 18.4072 30.1778C18.4072 32.029 19.8998 33.535 21.7345 33.535C23.5693 33.535 25.0619 32.029 25.0619 30.1778V10.8789C25.0619 10.3934 25.4519 10 25.933 10H30.5981C31.079 10 31.4692 10.3934 31.4692 10.8789C31.4692 14.0279 34.0081 16.5897 37.1289 16.5897C37.6101 16.5897 38 16.9834 38 17.4686V22.1758C38 22.6613 37.6101 23.0547 37.1289 23.0547C35.3219 23.0547 33.5705 22.6561 31.9692 21.8893C31.8008 21.8086 31.6341 21.7239 31.4692 21.6352V30.1778ZM36.2579 21.2605V18.2963C32.8712 17.8937 30.1769 15.175 29.7779 11.7578H26.804V30.1778C26.804 32.9983 24.53 35.293 21.7345 35.293C18.9392 35.293 16.6651 32.9983 16.6651 30.1778C16.6651 27.6566 18.4816 25.556 20.8634 25.138V22.1607C20.6951 22.1792 20.5284 22.203 20.3634 22.2319C16.6075 22.8897 13.7421 26.2025 13.7421 30.1778C13.7421 34.6245 17.3275 38.2422 21.7345 38.2422C26.1414 38.2422 29.727 34.6245 29.727 30.1778V20.055C29.727 19.7252 29.9099 19.4231 30.2007 19.2729C30.4917 19.1223 30.8415 19.1489 31.1067 19.3416C32.495 20.3492 34.0822 20.9827 35.7579 21.2062C35.9237 21.2284 36.0904 21.2465 36.2579 21.2605ZM35.7579 20.7016V18.7276C32.4932 18.1491 29.9168 15.5458 29.3454 12.2578H27.304V30.1778C27.304 33.2702 24.8104 35.793 21.7345 35.793C18.6588 35.793 16.1651 33.2701 16.1651 30.1778C16.1651 27.56 17.9505 25.3526 20.3634 24.7346V22.74C16.8879 23.3917 14.2421 26.4769 14.2421 30.1778C14.2421 34.3526 17.6078 37.7422 21.7345 37.7422C25.8611 37.7422 29.227 34.3526 29.227 30.1778V20.055C29.227 19.5404 29.5123 19.0658 29.9709 18.8289C30.43 18.5913 30.9823 18.6333 31.4004 18.9369C32.7034 19.8826 34.189 20.4813 35.7579 20.7016Z" fill="black"/>
</g>
<defs>
<filter id="filter0_d" x="-5" y="-5" width="60" height="60" filterUnits="userSpaceOnUse" color-interpolation-filters="sRGB">
<feFlood flood-opacity="0" result="BackgroundImageFix"/>
<feColorMatrix in="SourceAlpha" type="matrix" values="0 0 0 0 0 0 0 0 0 0 0 0 0 0 0 0 0 0 127 0"/>
<feOffset/>
<feGaussianBlur stdDeviation="2.5"/>
<feColorMatrix type="matrix" values="0 0 0 0 1 0 0 0 0 1 0 0 0 0 1 0 0 0 0.5 0"/>
<feBlend mode="normal" in2="BackgroundImageFix" result="effect1_dropShadow"/>
<feBlend mode="normal" in="SourceGraphic" in2="effect1_dropShadow" result="shape"/>
</filter>
</defs>
</svg>
