<svg width="88" height="89" viewBox="0 0 88 89" fill="none" xmlns="http://www.w3.org/2000/svg">
<g filter="url(#filter0_d)">
<circle cx="43.9677" cy="41.7091" r="33.9677" fill="white"/>
<path d="M57 30.6891C55.8683 31.5173 54.6152 32.1507 53.2891 32.565C52.5773 31.716 51.6314 31.1142 50.5792 30.8411C49.527 30.568 48.4194 30.6367 47.4061 31.0379C46.3928 31.4391 45.5227 32.1536 44.9135 33.0845C44.3043 34.0155 43.9855 35.1181 44 36.2432V37.4692C41.9231 37.5251 39.8651 37.0473 38.0094 36.0782C36.1536 35.1092 34.5576 33.6791 33.3636 31.9152C33.3636 31.9152 28.6364 42.9497 39.2727 47.854C36.8388 49.568 33.9394 50.4274 31 50.3061C41.6364 56.4364 54.6364 50.3061 54.6364 36.2064C54.6353 35.8649 54.6036 35.5242 54.5418 35.1888C55.748 33.9547 56.5992 32.3967 57 30.6891V30.6891Z" stroke="#BABABA" stroke-width="2.5" stroke-linecap="round" stroke-linejoin="round"/>
</g>
<defs>
<filter id="filter0_d" x="0" y="0.741455" width="87.9354" height="87.9354" filterUnits="userSpaceOnUse" color-interpolation-filters="sRGB">
<feFlood flood-opacity="0" result="BackgroundImageFix"/>
<feColorMatrix in="SourceAlpha" type="matrix" values="0 0 0 0 0 0 0 0 0 0 0 0 0 0 0 0 0 0 127 0"/>
<feOffset dy="3"/>
<feGaussianBlur stdDeviation="5"/>
<feColorMatrix type="matrix" values="0 0 0 0 0 0 0 0 0 0 0 0 0 0 0 0 0 0 0.15 0"/>
<feBlend mode="normal" in2="BackgroundImageFix" result="effect1_dropShadow"/>
<feBlend mode="normal" in="SourceGraphic" in2="effect1_dropShadow" result="shape"/>
</filter>
</defs>
</svg>
