<svg width="98" height="99" viewBox="0 0 98 99" fill="none" xmlns="http://www.w3.org/2000/svg">
<g filter="url(#filter0_d)">
<circle cx="48.9677" cy="49.7091" r="33.9677" fill="#36B7FF"/>
<path d="M62 38.6891C60.8683 39.5173 59.6152 40.1507 58.2891 40.565C57.5773 39.716 56.6314 39.1142 55.5792 38.8411C54.527 38.568 53.4194 38.6367 52.4061 39.0379C51.3928 39.4391 50.5227 40.1536 49.9135 41.0845C49.3043 42.0155 48.9855 43.1181 49 44.2432V45.4692C46.9231 45.5251 44.8651 45.0473 43.0094 44.0782C41.1536 43.1092 39.5576 41.6791 38.3636 39.9152C38.3636 39.9152 33.6364 50.9497 44.2727 55.854C41.8388 57.568 38.9394 58.4274 36 58.3061C46.6364 64.4364 59.6364 58.3061 59.6364 44.2064C59.6353 43.8649 59.6036 43.5242 59.5418 43.1888C60.748 41.9547 61.5992 40.3967 62 38.6891V38.6891Z" stroke="#FAFAFA" stroke-width="2.5" stroke-linecap="round" stroke-linejoin="round"/>
</g>
<defs>
<filter id="filter0_d" x="0" y="0.741455" width="97.9354" height="97.9354" filterUnits="userSpaceOnUse" color-interpolation-filters="sRGB">
<feFlood flood-opacity="0" result="BackgroundImageFix"/>
<feColorMatrix in="SourceAlpha" type="matrix" values="0 0 0 0 0 0 0 0 0 0 0 0 0 0 0 0 0 0 127 0"/>
<feOffset/>
<feGaussianBlur stdDeviation="7.5"/>
<feColorMatrix type="matrix" values="0 0 0 0 0.211765 0 0 0 0 0.717647 0 0 0 0 1 0 0 0 0.5 0"/>
<feBlend mode="normal" in2="BackgroundImageFix" result="effect1_dropShadow"/>
<feBlend mode="normal" in="SourceGraphic" in2="effect1_dropShadow" result="shape"/>
</filter>
</defs>
</svg>
