<svg width="68" height="69" viewBox="0 0 68 69" fill="none" xmlns="http://www.w3.org/2000/svg">
<circle cx="33.9677" cy="34.7091" r="33.9677" fill="#CFCFCF"/>
<path d="M47 23.6891C45.8683 24.5173 44.6152 25.1507 43.2891 25.565C42.5773 24.716 41.6314 24.1142 40.5792 23.8411C39.527 23.568 38.4194 23.6367 37.4061 24.0379C36.3928 24.4391 35.5227 25.1536 34.9135 26.0845C34.3043 27.0155 33.9855 28.1181 34 29.2432V30.4692C31.9231 30.5251 29.8651 30.0473 28.0094 29.0782C26.1536 28.1092 24.5576 26.6791 23.3636 24.9152C23.3636 24.9152 18.6364 35.9497 29.2727 40.854C26.8388 42.568 23.9394 43.4274 21 43.3061C31.6364 49.4364 44.6364 43.3061 44.6364 29.2064C44.6353 28.8649 44.6036 28.5242 44.5418 28.1888C45.748 26.9547 46.5992 25.3967 47 23.6891V23.6891Z" stroke="#BABABA" stroke-width="2.5" stroke-linecap="round" stroke-linejoin="round"/>
</svg>
