<svg width="50" height="50" viewBox="0 0 50 50" fill="none" xmlns="http://www.w3.org/2000/svg">
<g filter="url(#filter0_d)">
<path d="M38 14.0123C36.8683 14.8405 35.6152 15.4739 34.2891 15.8882C33.5773 15.0392 32.6314 14.4374 31.5792 14.1643C30.527 13.8911 29.4194 13.9598 28.4061 14.3611C27.3928 14.7623 26.5227 15.4767 25.9135 16.4077C25.3043 17.3387 24.9855 18.4413 25 19.5664V20.7924C22.9231 20.8483 20.8651 20.3704 19.0094 19.4014C17.1536 18.4324 15.5576 17.0022 14.3636 15.2384C14.3636 15.2384 9.63636 26.2729 20.2727 31.1771C17.8388 32.8911 14.9394 33.7506 12 33.6293C22.6364 39.7596 35.6364 33.6293 35.6364 19.5296C35.6353 19.1881 35.6036 18.8474 35.5418 18.512C36.748 17.2779 37.5992 15.7199 38 14.0123Z" fill="#36B7FF" stroke="#36B7FF" stroke-width="2.5" stroke-linecap="round" stroke-linejoin="round"/>
</g>
<defs>
<filter id="filter0_d" x="-5" y="-5" width="60" height="60" filterUnits="userSpaceOnUse" color-interpolation-filters="sRGB">
<feFlood flood-opacity="0" result="BackgroundImageFix"/>
<feColorMatrix in="SourceAlpha" type="matrix" values="0 0 0 0 0 0 0 0 0 0 0 0 0 0 0 0 0 0 127 0"/>
<feOffset/>
<feGaussianBlur stdDeviation="2.5"/>
<feColorMatrix type="matrix" values="0 0 0 0 0.211765 0 0 0 0 0.717647 0 0 0 0 1 0 0 0 0.5 0"/>
<feBlend mode="normal" in2="BackgroundImageFix" result="effect1_dropShadow"/>
<feBlend mode="normal" in="SourceGraphic" in2="effect1_dropShadow" result="shape"/>
</filter>
</defs>
</svg>
