<svg width="68" height="69" viewBox="0 0 68 69" fill="none" xmlns="http://www.w3.org/2000/svg">
<circle cx="33.9677" cy="34.7738" r="33.9677" fill="#CFCFCF"/>
<path d="M34.2294 46.9551C39.7266 46.9551 37.7665 43.5848 38.1908 42.6158C38.1845 41.892 38.1782 41.1959 38.2035 40.7727C38.5518 40.8678 39.3736 41.271 41.0709 42.8688C43.6913 45.4294 44.361 46.9551 46.4779 46.9551H50.3744C51.6094 46.9551 52.2523 46.4598 52.5737 46.0443C52.884 45.6426 53.188 44.9372 52.8555 43.8394C51.9863 41.1959 46.9165 36.6312 46.6014 36.1497C46.6489 36.0608 46.7249 35.9427 46.7645 35.8814H46.7613C47.762 34.601 51.5809 29.0596 52.143 26.8424C52.1446 26.8393 52.1462 26.8347 52.1462 26.8301C52.4502 25.8181 52.1715 25.1618 51.8833 24.7908C51.4495 24.2357 50.7592 23.9551 49.8266 23.9551H45.9301C44.6254 23.9551 43.6359 24.5914 43.1355 25.7522C42.298 27.8145 39.9451 32.0557 38.1813 33.5568C38.1275 31.4301 38.1639 29.8063 38.1924 28.5996C38.2494 26.2459 38.4331 23.9551 35.9109 23.9551H29.7866C28.2064 23.9551 26.6944 25.6264 28.3315 27.6106C29.7628 29.3494 28.8461 30.3184 29.1548 35.1423C27.9515 33.8926 25.8109 30.5178 24.2972 26.2045C23.8729 25.0376 23.2301 23.9566 21.4203 23.9566H17.5238C15.9437 23.9566 15 24.7908 15 26.1876C15 29.3248 22.1708 46.9551 34.2294 46.9551ZM21.4203 26.2566C21.7639 26.2566 21.7988 26.2566 22.0537 26.9574C23.6037 31.378 27.0807 37.9192 29.6203 37.9192C31.5282 37.9192 31.5282 36.0255 31.5282 35.3125L31.5267 29.6361C31.4222 27.7578 30.716 26.8224 30.2521 26.2551L35.8064 26.2612C35.8095 26.2873 35.7747 32.5402 35.8222 34.0552C35.8222 36.2064 37.586 37.4392 40.3394 34.7406C43.2448 31.565 45.254 26.8178 45.3348 26.6246C45.4535 26.3486 45.5564 26.2551 45.9301 26.2551H49.8266H49.8425C49.8409 26.2597 49.8409 26.2643 49.8393 26.2689C49.483 27.8789 45.9665 33.0094 44.7901 34.6026C44.7711 34.6271 44.7537 34.6532 44.7363 34.6792C44.2185 35.498 43.7974 36.4027 44.8075 37.6754H44.8091C44.9009 37.7827 45.14 38.0342 45.4883 38.3838C46.5713 39.4663 50.2858 43.1678 50.6151 44.6398C50.3966 44.6735 50.1591 44.649 46.4779 44.6566C45.6942 44.6566 45.0814 43.522 42.7429 41.2373C40.6402 39.2562 39.2754 38.4466 38.0325 38.4466C35.6195 38.4466 35.7953 40.3434 35.8174 42.6372C35.8254 45.1243 35.8095 44.3377 35.8269 44.4941C35.686 44.5478 35.2823 44.6551 34.2294 44.6551C24.1832 44.6551 17.641 29.2129 17.3892 26.2612C17.4763 26.2536 18.6749 26.2582 21.4203 26.2566Z" fill="#BABABA"/>
</svg>
