<svg width="98" height="99" viewBox="0 0 98 99" fill="none" xmlns="http://www.w3.org/2000/svg">
<g filter="url(#filter0_d)">
<circle cx="48.9677" cy="49.7738" r="33.9677" fill="#2C80FF"/>
<path d="M49.2294 61.9551C54.7266 61.9551 52.7665 58.5848 53.1908 57.6158C53.1845 56.892 53.1782 56.1959 53.2035 55.7727C53.5518 55.8678 54.3736 56.271 56.0709 57.8688C58.6913 60.4294 59.361 61.9551 61.4779 61.9551H65.3744C66.6094 61.9551 67.2523 61.4598 67.5737 61.0443C67.884 60.6426 68.188 59.9372 67.8555 58.8394C66.9863 56.1959 61.9165 51.6312 61.6014 51.1497C61.6489 51.0608 61.7249 50.9427 61.7645 50.8814H61.7613C62.762 49.601 66.5809 44.0596 67.143 41.8424C67.1446 41.8393 67.1462 41.8347 67.1462 41.8301C67.4502 40.8181 67.1715 40.1618 66.8833 39.7908C66.4495 39.2357 65.7592 38.9551 64.8266 38.9551H60.9301C59.6254 38.9551 58.6359 39.5914 58.1355 40.7522C57.298 42.8145 54.9451 47.0557 53.1813 48.5568C53.1275 46.4301 53.1639 44.8063 53.1924 43.5996C53.2494 41.2459 53.4331 38.9551 50.9109 38.9551H44.7866C43.2064 38.9551 41.6944 40.6264 43.3315 42.6106C44.7628 44.3494 43.8461 45.3184 44.1548 50.1423C42.9515 48.8926 40.8109 45.5178 39.2972 41.2045C38.8729 40.0376 38.2301 38.9566 36.4203 38.9566H32.5238C30.9437 38.9566 30 39.7908 30 41.1876C30 44.3248 37.1708 61.9551 49.2294 61.9551ZM36.4203 41.2566C36.7639 41.2566 36.7988 41.2566 37.0537 41.9574C38.6037 46.378 42.0807 52.9192 44.6203 52.9192C46.5282 52.9192 46.5282 51.0255 46.5282 50.3125L46.5267 44.6361C46.4222 42.7578 45.716 41.8224 45.2521 41.2551L50.8064 41.2612C50.8095 41.2873 50.7747 47.5402 50.8222 49.0552C50.8222 51.2064 52.586 52.4392 55.3394 49.7406C58.2448 46.565 60.254 41.8178 60.3348 41.6246C60.4535 41.3486 60.5564 41.2551 60.9301 41.2551H64.8266H64.8425C64.8409 41.2597 64.8409 41.2643 64.8393 41.2689C64.483 42.8789 60.9665 48.0094 59.7901 49.6026C59.7711 49.6271 59.7537 49.6532 59.7363 49.6792C59.2185 50.498 58.7974 51.4027 59.8075 52.6754H59.8091C59.9009 52.7827 60.14 53.0342 60.4883 53.3838C61.5713 54.4663 65.2858 58.1678 65.6151 59.6398C65.3966 59.6735 65.1591 59.649 61.4779 59.6566C60.6942 59.6566 60.0814 58.522 57.7429 56.2373C55.6402 54.2562 54.2754 53.4466 53.0325 53.4466C50.6195 53.4466 50.7953 55.3434 50.8174 57.6372C50.8254 60.1243 50.8095 59.3377 50.8269 59.4941C50.686 59.5478 50.2823 59.6551 49.2294 59.6551C39.1832 59.6551 32.641 44.2129 32.3892 41.2612C32.4763 41.2536 33.6749 41.2582 36.4203 41.2566Z" fill="#FAFAFA"/>
</g>
<defs>
<filter id="filter0_d" x="0" y="0.806091" width="97.9354" height="97.9354" filterUnits="userSpaceOnUse" color-interpolation-filters="sRGB">
<feFlood flood-opacity="0" result="BackgroundImageFix"/>
<feColorMatrix in="SourceAlpha" type="matrix" values="0 0 0 0 0 0 0 0 0 0 0 0 0 0 0 0 0 0 127 0"/>
<feOffset/>
<feGaussianBlur stdDeviation="7.5"/>
<feColorMatrix type="matrix" values="0 0 0 0 0.172549 0 0 0 0 0.501961 0 0 0 0 1 0 0 0 0.5 0"/>
<feBlend mode="normal" in2="BackgroundImageFix" result="effect1_dropShadow"/>
<feBlend mode="normal" in="SourceGraphic" in2="effect1_dropShadow" result="shape"/>
</filter>
</defs>
</svg>
