<svg width="88" height="89" viewBox="0 0 88 89" fill="none" xmlns="http://www.w3.org/2000/svg">
<g filter="url(#filter0_d)">
<circle cx="43.9677" cy="41.7738" r="33.9677" fill="white"/>
<path d="M44.2294 53.9551C49.7266 53.9551 47.7665 50.5848 48.1908 49.6158C48.1845 48.892 48.1782 48.1959 48.2035 47.7727C48.5518 47.8678 49.3736 48.271 51.0709 49.8688C53.6913 52.4294 54.361 53.9551 56.4779 53.9551H60.3744C61.6094 53.9551 62.2523 53.4598 62.5737 53.0443C62.884 52.6426 63.188 51.9372 62.8555 50.8394C61.9863 48.1959 56.9165 43.6312 56.6014 43.1497C56.6489 43.0608 56.7249 42.9427 56.7645 42.8814H56.7613C57.762 41.601 61.5809 36.0596 62.143 33.8424C62.1446 33.8393 62.1462 33.8347 62.1462 33.8301C62.4502 32.8181 62.1715 32.1618 61.8833 31.7908C61.4495 31.2357 60.7592 30.9551 59.8266 30.9551H55.9301C54.6254 30.9551 53.6359 31.5914 53.1355 32.7522C52.298 34.8145 49.9451 39.0557 48.1813 40.5568C48.1275 38.4301 48.1639 36.8063 48.1924 35.5996C48.2494 33.2459 48.4331 30.9551 45.9109 30.9551H39.7866C38.2064 30.9551 36.6944 32.6264 38.3315 34.6106C39.7628 36.3494 38.8461 37.3184 39.1548 42.1423C37.9515 40.8926 35.8109 37.5178 34.2972 33.2045C33.8729 32.0376 33.2301 30.9566 31.4203 30.9566H27.5238C25.9437 30.9566 25 31.7908 25 33.1876C25 36.3248 32.1708 53.9551 44.2294 53.9551ZM31.4203 33.2566C31.7639 33.2566 31.7988 33.2566 32.0537 33.9574C33.6037 38.378 37.0807 44.9192 39.6203 44.9192C41.5282 44.9192 41.5282 43.0255 41.5282 42.3125L41.5267 36.6361C41.4222 34.7578 40.716 33.8224 40.2521 33.2551L45.8064 33.2612C45.8095 33.2873 45.7747 39.5402 45.8222 41.0552C45.8222 43.2064 47.586 44.4392 50.3394 41.7406C53.2448 38.565 55.254 33.8178 55.3348 33.6246C55.4535 33.3486 55.5564 33.2551 55.9301 33.2551H59.8266H59.8425C59.8409 33.2597 59.8409 33.2643 59.8393 33.2689C59.483 34.8789 55.9665 40.0094 54.7901 41.6026C54.7711 41.6271 54.7537 41.6532 54.7363 41.6792C54.2185 42.498 53.7974 43.4027 54.8075 44.6754H54.8091C54.9009 44.7827 55.14 45.0342 55.4883 45.3838C56.5713 46.4663 60.2858 50.1678 60.6151 51.6398C60.3966 51.6735 60.1591 51.649 56.4779 51.6566C55.6942 51.6566 55.0814 50.522 52.7429 48.2373C50.6402 46.2562 49.2754 45.4466 48.0325 45.4466C45.6195 45.4466 45.7953 47.3434 45.8174 49.6372C45.8254 52.1243 45.8095 51.3377 45.8269 51.4941C45.686 51.5478 45.2823 51.6551 44.2294 51.6551C34.1832 51.6551 27.641 36.2129 27.3892 33.2612C27.4763 33.2536 28.6749 33.2582 31.4203 33.2566Z" fill="#BABABA"/>
</g>
<defs>
<filter id="filter0_d" x="0" y="0.806091" width="87.9354" height="87.9354" filterUnits="userSpaceOnUse" color-interpolation-filters="sRGB">
<feFlood flood-opacity="0" result="BackgroundImageFix"/>
<feColorMatrix in="SourceAlpha" type="matrix" values="0 0 0 0 0 0 0 0 0 0 0 0 0 0 0 0 0 0 127 0"/>
<feOffset dy="3"/>
<feGaussianBlur stdDeviation="5"/>
<feColorMatrix type="matrix" values="0 0 0 0 0 0 0 0 0 0 0 0 0 0 0 0 0 0 0.15 0"/>
<feBlend mode="normal" in2="BackgroundImageFix" result="effect1_dropShadow"/>
<feBlend mode="normal" in="SourceGraphic" in2="effect1_dropShadow" result="shape"/>
</filter>
</defs>
</svg>
