<svg width="50" height="50" viewBox="0 0 50 50" fill="none" xmlns="http://www.w3.org/2000/svg">
<g filter="url(#filter0_d)">
<path d="M25.2294 37C30.7266 37 28.7665 33.6297 29.1908 32.6607C29.1845 31.9369 29.1782 31.2408 29.2035 30.8176C29.5518 30.9127 30.3736 31.3159 32.0709 32.9137C34.6913 35.4743 35.361 37 37.4779 37H41.3744C42.6094 37 43.2523 36.5047 43.5737 36.0892C43.884 35.6875 44.188 34.9821 43.8555 33.8843C42.9863 31.2408 37.9165 26.6761 37.6014 26.1946C37.6489 26.1057 37.7249 25.9876 37.7645 25.9263H37.7613C38.762 24.6459 42.5809 19.1045 43.143 16.8873C43.1446 16.8842 43.1462 16.8796 43.1462 16.875C43.4502 15.863 43.1715 15.2067 42.8833 14.8357C42.4495 14.2806 41.7592 14 40.8266 14H36.9301C35.6254 14 34.6359 14.6363 34.1355 15.7971C33.298 17.8594 30.9451 22.1006 29.1813 23.6017C29.1275 21.475 29.1639 19.8512 29.1924 18.6445C29.2494 16.2908 29.4331 14 26.9109 14H20.7866C19.2064 14 17.6944 15.6713 19.3315 17.6555C20.7628 19.3943 19.8461 20.3633 20.1548 25.1872C18.9515 23.9375 16.8109 20.5627 15.2972 16.2494C14.8729 15.0825 14.2301 14.0015 12.4203 14.0015H8.52381C6.94366 14.0015 6 14.8357 6 16.2325C6 19.3697 13.1708 37 25.2294 37ZM12.4203 16.3015C12.7639 16.3015 12.7988 16.3015 13.0537 17.0023C14.6037 21.4229 18.0807 27.9641 20.6203 27.9641C22.5282 27.9641 22.5282 26.0704 22.5282 25.3574L22.5267 19.681C22.4222 17.8027 21.716 16.8673 21.2521 16.3L26.8064 16.3061C26.8095 16.3322 26.7747 22.5851 26.8222 24.1001C26.8222 26.2513 28.586 27.4841 31.3394 24.7855C34.2448 21.6099 36.254 16.8627 36.3348 16.6695C36.4535 16.3935 36.5564 16.3 36.9301 16.3H40.8266H40.8425C40.8409 16.3046 40.8409 16.3092 40.8393 16.3138C40.483 17.9238 36.9665 23.0543 35.7901 24.6475C35.7711 24.672 35.7537 24.6981 35.7363 24.7241C35.2185 25.5429 34.7974 26.4476 35.8075 27.7203H35.8091C35.9009 27.8276 36.14 28.0791 36.4883 28.4287C36.4987 28.439 36.5093 28.4497 36.5202 28.4605C37.6422 29.5819 41.2889 33.2268 41.6151 34.6847C41.3966 34.7184 41.1591 34.6939 37.4779 34.7015C36.6942 34.7015 36.0814 33.5669 33.7429 31.2822C31.6402 29.3011 30.2754 28.4915 29.0325 28.4915C26.6195 28.4915 26.7953 30.3883 26.8174 32.6821C26.8254 35.1692 26.8095 34.3826 26.8269 34.539C26.686 34.5927 26.2823 34.7 25.2294 34.7C15.1832 34.7 8.64097 19.2578 8.38922 16.3061C8.47631 16.2985 9.67488 16.3031 12.4203 16.3015Z" fill="#2C80FF"/>
<path d="M12.4203 16.3015C12.7639 16.3015 12.7988 16.3015 13.0537 17.0023C14.6037 21.4229 18.0807 27.9641 20.6203 27.9641C22.5282 27.9641 22.5282 26.0704 22.5282 25.3574L22.5267 19.681C22.4222 17.8027 21.716 16.8673 21.2521 16.3L26.8064 16.3061C26.8095 16.3322 26.7747 22.5851 26.8222 24.1001C26.8222 26.2513 28.586 27.4841 31.3394 24.7855C34.2448 21.6099 36.254 16.8627 36.3348 16.6695C36.4535 16.3935 36.5564 16.3 36.9301 16.3H40.8266H40.8425C40.8409 16.3046 40.8409 16.3092 40.8393 16.3138C40.483 17.9238 36.9665 23.0543 35.7901 24.6475C35.7711 24.672 35.7537 24.6981 35.7363 24.7241C35.2185 25.5429 34.7974 26.4476 35.8075 27.7203H35.8091C35.9009 27.8276 36.14 28.0791 36.4883 28.4287L36.5202 28.4605C37.6422 29.5819 41.2889 33.2268 41.6151 34.6847C41.3966 34.7184 41.1591 34.6939 37.4779 34.7015C36.6942 34.7015 36.0814 33.5669 33.7429 31.2822C31.6402 29.3011 30.2754 28.4915 29.0325 28.4915C26.6195 28.4915 26.7953 30.3883 26.8174 32.6821C26.8254 35.1692 26.8095 34.3826 26.8269 34.539C26.686 34.5927 26.2823 34.7 25.2294 34.7C15.1832 34.7 8.64097 19.2578 8.38922 16.3061C8.47631 16.2985 9.67488 16.3031 12.4203 16.3015Z" fill="#2C80FF"/>
</g>
<defs>
<filter id="filter0_d" x="1" y="9" width="48" height="33" filterUnits="userSpaceOnUse" color-interpolation-filters="sRGB">
<feFlood flood-opacity="0" result="BackgroundImageFix"/>
<feColorMatrix in="SourceAlpha" type="matrix" values="0 0 0 0 0 0 0 0 0 0 0 0 0 0 0 0 0 0 127 0"/>
<feOffset/>
<feGaussianBlur stdDeviation="2.5"/>
<feColorMatrix type="matrix" values="0 0 0 0 0.172549 0 0 0 0 0.501961 0 0 0 0 1 0 0 0 0.5 0"/>
<feBlend mode="normal" in2="BackgroundImageFix" result="effect1_dropShadow"/>
<feBlend mode="normal" in="SourceGraphic" in2="effect1_dropShadow" result="shape"/>
</filter>
</defs>
</svg>
