<svg width="88" height="88" viewBox="0 0 88 88" fill="none" xmlns="http://www.w3.org/2000/svg">
<g filter="url(#filter0_d)">
<circle cx="43.9677" cy="40.9677" r="33.9677" fill="white"/>
<path d="M61.4081 32.0889C61.2074 31.287 60.7985 30.5523 60.2227 29.959C59.647 29.3656 58.9248 28.9347 58.1291 28.7096C55.222 28 43.5933 28 43.5933 28C43.5933 28 31.9646 28 29.0575 28.7772C28.2618 29.0023 27.5396 29.4332 26.9639 30.0265C26.3882 30.6199 25.9792 31.3546 25.7785 32.1565C25.2464 35.1058 24.9862 38.0977 25.001 41.0945C24.982 44.114 25.2423 47.1287 25.7785 50.1002C25.9998 50.8772 26.4179 51.5839 26.9923 52.1522C27.5667 52.7205 28.278 53.1311 29.0575 53.3443C31.9646 54.1215 43.5933 54.1215 43.5933 54.1215C43.5933 54.1215 55.222 54.1215 58.1291 53.3443C58.9248 53.1192 59.647 52.6883 60.2227 52.095C60.7985 51.5016 61.2074 50.7669 61.4081 49.965C61.9361 47.0379 62.1963 44.0688 62.1856 41.0945C62.2046 38.0751 61.9443 35.0604 61.4081 32.0889V32.0889Z" stroke="#BABABA" stroke-width="2.5" stroke-linecap="round" stroke-linejoin="round"/>
<path d="M39.791 46.6199L49.5097 41.0949L39.791 35.5698V46.6199Z" stroke="#BABABA" stroke-width="2.5" stroke-linecap="round" stroke-linejoin="round"/>
</g>
<defs>
<filter id="filter0_d" x="0" y="0" width="87.9354" height="87.9354" filterUnits="userSpaceOnUse" color-interpolation-filters="sRGB">
<feFlood flood-opacity="0" result="BackgroundImageFix"/>
<feColorMatrix in="SourceAlpha" type="matrix" values="0 0 0 0 0 0 0 0 0 0 0 0 0 0 0 0 0 0 127 0"/>
<feOffset dy="3"/>
<feGaussianBlur stdDeviation="5"/>
<feColorMatrix type="matrix" values="0 0 0 0 0 0 0 0 0 0 0 0 0 0 0 0 0 0 0.15 0"/>
<feBlend mode="normal" in2="BackgroundImageFix" result="effect1_dropShadow"/>
<feBlend mode="normal" in="SourceGraphic" in2="effect1_dropShadow" result="shape"/>
</filter>
</defs>
</svg>
