<svg width="68" height="68" viewBox="0 0 68 68" fill="none" xmlns="http://www.w3.org/2000/svg">
<circle cx="33.9677" cy="33.9677" r="33.9677" fill="#CFCFCF"/>
<path d="M51.4081 25.0889C51.2074 24.287 50.7985 23.5523 50.2227 22.959C49.647 22.3656 48.9248 21.9347 48.1291 21.7096C45.222 21 33.5933 21 33.5933 21C33.5933 21 21.9646 21 19.0575 21.7772C18.2618 22.0023 17.5396 22.4332 16.9639 23.0265C16.3882 23.6199 15.9792 24.3546 15.7785 25.1565C15.2464 28.1058 14.9862 31.0977 15.001 34.0945C14.982 37.114 15.2423 40.1287 15.7785 43.1002C15.9998 43.8772 16.4179 44.5839 16.9923 45.1522C17.5667 45.7205 18.278 46.1311 19.0575 46.3443C21.9646 47.1215 33.5933 47.1215 33.5933 47.1215C33.5933 47.1215 45.222 47.1215 48.1291 46.3443C48.9248 46.1192 49.647 45.6883 50.2227 45.095C50.7985 44.5016 51.2074 43.7669 51.4081 42.965C51.9361 40.0379 52.1963 37.0688 52.1856 34.0945C52.2046 31.0751 51.9443 28.0604 51.4081 25.0889V25.0889Z" stroke="#BABABA" stroke-width="2.5" stroke-linecap="round" stroke-linejoin="round"/>
<path d="M29.791 39.6199L39.5097 34.0949L29.791 28.5698V39.6199Z" stroke="#BABABA" stroke-width="2.5" stroke-linecap="round" stroke-linejoin="round"/>
</svg>
