<svg width="50" height="50" viewBox="0 0 50 50" fill="none" xmlns="http://www.w3.org/2000/svg">
<path d="M42.4081 16.0889C42.2074 15.287 41.7985 14.5523 41.2227 13.959C40.647 13.3656 39.9248 12.9347 39.1291 12.7096C36.222 12 24.5933 12 24.5933 12C24.5933 12 12.9646 12 10.0575 12.7772C9.2618 13.0023 8.53963 13.4332 7.96389 14.0265C7.38815 14.6199 6.97924 15.3546 6.77846 16.1565C6.24641 19.1058 5.98615 22.0977 6.00097 25.0945C5.982 28.114 6.24227 31.1287 6.77846 34.1002C6.99981 34.8772 7.41788 35.5839 7.99228 36.1522C8.56668 36.7205 9.27798 37.1311 10.0575 37.3443C12.9646 38.1215 24.5933 38.1215 24.5933 38.1215C24.5933 38.1215 36.222 38.1215 39.1291 37.3443C39.9248 37.1192 40.647 36.6883 41.2227 36.095C41.7985 35.5016 42.2074 34.7669 42.4081 33.965C42.9361 31.0379 43.1963 28.0688 43.1856 25.0945C43.2046 22.0751 42.9443 19.0604 42.4081 16.0889V16.0889Z" stroke="#BABABA" stroke-width="2.5" stroke-linecap="round" stroke-linejoin="round"/>
<path d="M20.791 30.6199L30.5097 25.0949L20.791 19.5698V30.6199Z" stroke="#BABABA" stroke-width="2.5" stroke-linecap="round" stroke-linejoin="round"/>
</svg>
