<svg width="50" height="50" viewBox="0 0 50 50" fill="none" xmlns="http://www.w3.org/2000/svg">
<g filter="url(#filter0_d)">
<path fill-rule="evenodd" clip-rule="evenodd" d="M41.2227 13.959C41.7985 14.5523 42.2074 15.287 42.4081 16.0889C42.9443 19.0604 43.2046 22.0751 43.1856 25.0945C43.1963 28.0688 42.9361 31.0379 42.4081 33.965C42.2074 34.7669 41.7985 35.5016 41.2227 36.095C40.647 36.6883 39.9248 37.1192 39.1291 37.3443C36.222 38.1215 24.5933 38.1215 24.5933 38.1215C24.5933 38.1215 12.9646 38.1215 10.0575 37.3443C9.27798 37.1311 8.56668 36.7205 7.99228 36.1522C7.41788 35.5839 6.99981 34.8772 6.77846 34.1002C6.24227 31.1287 5.982 28.114 6.00097 25.0945C5.98615 22.0977 6.24641 19.1058 6.77846 16.1565C6.97924 15.3546 7.38815 14.6199 7.96389 14.0265C8.53963 13.4332 9.2618 13.0023 10.0575 12.7772C12.9646 12 24.5933 12 24.5933 12C24.5933 12 36.222 12 39.1291 12.7096C39.9248 12.9347 40.647 13.3656 41.2227 13.959ZM21.4088 18.4832C21.0218 18.2632 20.5471 18.2656 20.1624 18.4894C19.7777 18.7132 19.541 19.1247 19.541 19.5698V30.6199C19.541 31.065 19.7777 31.4765 20.1624 31.7004C20.5471 31.9242 21.0218 31.9266 21.4088 31.7066L31.1275 26.1816C31.5183 25.9594 31.7597 25.5444 31.7597 25.0949C31.7597 24.6453 31.5183 24.2304 31.1275 24.0082L21.4088 18.4832ZM27.9805 25.0949L22.041 28.4714V21.7183L27.9805 25.0949Z" fill="#FF2525"/>
</g>
<defs>
<filter id="filter0_d" x="1" y="7" width="47.1866" height="36.1215" filterUnits="userSpaceOnUse" color-interpolation-filters="sRGB">
<feFlood flood-opacity="0" result="BackgroundImageFix"/>
<feColorMatrix in="SourceAlpha" type="matrix" values="0 0 0 0 0 0 0 0 0 0 0 0 0 0 0 0 0 0 127 0"/>
<feOffset/>
<feGaussianBlur stdDeviation="2.5"/>
<feColorMatrix type="matrix" values="0 0 0 0 1 0 0 0 0 0.145098 0 0 0 0 0.145098 0 0 0 0.5 0"/>
<feBlend mode="normal" in2="BackgroundImageFix" result="effect1_dropShadow"/>
<feBlend mode="normal" in="SourceGraphic" in2="effect1_dropShadow" result="shape"/>
</filter>
</defs>
</svg>
