<svg width="1064" height="514" viewBox="0 0 1064 514" fill="none" xmlns="http://www.w3.org/2000/svg">
<path d="M1017.11 224.876C1013.97 218.869 1006.56 216.547 1000.55 219.687C996.904 221.594 994.628 225.077 994.092 228.86C990.68 227.141 986.521 227.024 982.876 228.93C976.869 232.072 974.546 239.486 977.688 245.494C978.133 246.345 978.672 247.113 979.273 247.811C985.69 256.404 1001.3 260.847 1010.2 259.655C1016.25 253.027 1021.51 237.672 1018.11 227.502C1017.88 226.609 1017.56 225.728 1017.11 224.876V224.876Z" fill="#DD2E44"/>
<path d="M34.3693 99.8764C35.5958 95.4011 32.9622 90.7789 28.4877 89.5526C25.7713 88.8082 23.0069 89.4922 20.9745 91.1387C20.0655 88.6861 18.036 86.6882 15.3205 85.9439C10.8452 84.7174 6.22324 87.3502 4.99649 91.8263C4.82275 92.4603 4.73488 93.0965 4.71058 93.7264C3.91971 101.025 9.67079 110.53 14.6865 114.082C20.8114 113.583 30.6057 108.339 33.6447 101.657C33.9465 101.103 34.1953 100.511 34.3693 99.8764V99.8764Z" fill="#FF9900"/>
<path d="M1061.27 231.372C1062.68 228.55 1061.54 225.118 1058.72 223.707C1057 222.851 1055.07 222.94 1053.5 223.769C1053.21 222.013 1052.13 220.411 1050.41 219.555C1047.59 218.144 1044.16 219.287 1042.75 222.11C1042.55 222.509 1042.41 222.922 1042.31 223.339C1040.81 228.102 1043.39 235.203 1046.26 238.237C1050.41 238.716 1057.64 236.517 1060.55 232.463C1060.83 232.134 1061.07 231.772 1061.27 231.372V231.372Z" fill="#0066FF"/>
<g filter="url(#filter0_f)">
<g clip-path="url(#clip0)">
<path d="M67.2319 282.204C66.0382 277.419 61.1856 274.504 56.4002 275.697C51.6148 276.891 48.6997 281.744 49.8934 286.529L75.8428 390.56C77.0364 395.345 81.889 398.26 86.6744 397.067C91.4599 395.873 94.3749 391.021 93.1812 386.235L67.2319 282.204ZM162.594 258.417C161.4 253.632 156.547 250.717 151.762 251.911C146.976 253.104 144.061 257.957 145.255 262.742L171.204 366.773C172.398 371.559 177.251 374.474 182.036 373.28C186.822 372.086 189.737 367.234 188.543 362.448L162.594 258.417Z" fill="#DD2E44"/>
<path d="M191.835 283.353C193.029 288.139 190.114 292.991 185.329 294.185L46.6207 328.784C41.8352 329.978 36.9826 327.063 35.789 322.278C34.5953 317.492 37.5103 312.64 42.2958 311.446L181.004 276.847C185.789 275.653 190.642 278.568 191.835 283.353ZM177.77 245.423C178.963 250.209 176.243 253.719 171.263 256.255C171.263 256.255 159.34 263.833 107.325 276.808C55.3094 289.782 41.2243 288.691 41.2243 288.691C35.449 288.907 31.5862 286.97 30.3926 282.185C29.1989 277.399 32.114 272.547 36.8994 271.353L166.938 238.916C171.723 237.723 176.576 240.638 177.77 245.423Z" fill="#DD2E44"/>
<path d="M178.453 231.44C179.646 236.225 177.539 239.942 172.345 242.172C172.345 242.172 156.087 250.832 104.076 263.805C52.0695 276.778 33.6542 276.767 33.6542 276.767C28.375 277.218 24.4908 274.973 23.2971 270.188C22.1023 265.398 19.128 257.369 23.9134 256.175C23.9134 256.175 43.41 260.521 99.7514 246.467C156.093 232.413 171.269 219.419 171.269 219.419C176.059 218.224 177.258 226.65 178.453 231.44Z" fill="#292F33"/>
<path d="M121.4 296.319C122.594 301.104 119.679 305.957 114.893 307.151C110.108 308.344 105.255 305.429 104.061 300.644L97.5741 274.636C96.3804 269.851 99.2954 264.998 104.081 263.804C108.866 262.611 113.719 265.526 114.913 270.311L121.4 296.319Z" fill="#DD2E44"/>
<path d="M102.932 388.408C104.125 393.193 101.21 398.046 96.4249 399.239L79.0864 403.564C74.301 404.758 69.4484 401.843 68.2547 397.057C67.0611 392.272 69.9761 387.419 74.7615 386.226L92.1 381.901C96.8854 380.707 101.738 383.622 102.932 388.408ZM198.293 364.621C199.487 369.406 196.572 374.259 191.787 375.452L174.448 379.777C169.663 380.971 164.81 378.056 163.616 373.271C162.423 368.485 165.338 363.632 170.123 362.439L187.462 358.114C192.247 356.92 197.1 359.835 198.293 364.621Z" fill="#292F33"/>
</g>
</g>
<g filter="url(#filter1_f)">
<g clip-path="url(#clip1)">
<path d="M1002.9 415.349C1002.25 413.804 1000.7 412.825 999.026 412.897L950.557 414.972L976.187 359.417C976.993 357.67 976.45 355.598 974.886 354.474C974.13 353.928 973.239 353.68 972.364 353.718C971.429 353.758 970.508 354.127 969.785 354.805L941.384 381.537L884.742 434.853C883.521 436.003 883.139 437.793 883.792 439.337C884.445 440.882 885.987 441.865 887.665 441.793L936.134 439.718L910.504 495.273C909.698 497.02 910.242 499.092 911.806 500.216C912.561 500.762 913.452 501.01 914.327 500.972C915.263 500.932 916.184 500.563 916.907 499.885L945.307 473.153L1001.95 419.837C1003.17 418.687 1003.55 416.897 1002.9 415.349V415.349Z" fill="#FFAC33"/>
</g>
</g>
<g clip-path="url(#clip2)">
<path d="M875.351 86.1955C877.948 68.1807 892.206 54.4105 916.178 54.4105C917.13 54.4105 918.196 54.4495 919.311 54.508C924.118 54.6965 928.934 55.314 933.608 56.328C936.042 56.796 938.505 57.3582 940.93 57.9985C943.449 54.5828 948.541 50.9688 949.822 50.9688C951.486 50.9688 949.945 57.0495 949.841 60.8877C952.701 62.022 955.318 63.2992 957.469 64.7325C967.794 71.616 967.794 75.0577 979.693 75.0577C984.997 75.0577 984.854 80.4462 984.854 87.099C984.854 93.7485 984.997 95.6075 979.693 99.1467C972.598 103.879 964.317 110.886 953.849 116.651C947.274 126.879 952.792 136.999 947.144 136.999C943.159 136.999 938.021 130.616 935.291 124.181C929.48 125.722 923.162 126.681 916.178 126.681C912.466 126.681 909.015 126.392 905.775 125.885C904.891 132.203 906.295 136.999 902.411 136.999C897.357 136.999 879.667 120.769 875.702 100.307C875.507 99.3742 875.368 98.4155 875.241 97.4405C875.202 97.148 875.15 96.8555 875.117 96.5597C875.049 95.913 875.02 95.2467 874.984 94.5837C871.585 95.4775 868 96.836 868 94.015C868 91.7237 871.637 88.4412 875.351 86.1955Z" fill="#F4ABBA"/>
<path d="M950.589 75.058C950.589 76.956 952.129 78.4997 954.03 78.4997C955.928 78.4997 957.472 76.9592 957.472 75.058C957.472 73.1567 955.932 71.6162 954.03 71.6162C952.129 71.6162 950.589 73.1567 950.589 75.058Z" fill="#292F33"/>
</g>
<g clip-path="url(#clip3)">
<path d="M177.452 237.472C179.292 234.627 193.219 222.599 200.359 221.071C207.493 219.538 206.186 212.062 201.852 209.258C192.163 202.991 163.145 212.074 155.783 223.456C146.58 237.684 152.91 263.67 162.602 269.939C166.936 272.742 173.853 271.55 172.325 264.41C170.792 257.276 173.77 243.163 177.452 237.472Z" fill="#3B88C3"/>
<path d="M129.328 167.533C134.935 158.866 144.803 152.951 149.136 155.754C162.137 164.164 178.167 193.998 168.483 218.473C158.802 242.949 129.328 167.533 129.328 167.533V167.533ZM109.498 228.478C111.029 235.614 116.894 245.559 125.564 251.167C134.232 256.774 124.422 233.522 132.443 231.029C143.463 227.595 109.498 228.478 109.498 228.478Z" fill="#3B88C3"/>
<path d="M83.1525 195.554C89.5237 190.453 90.9358 184.707 90.1779 177.561C89.4236 170.409 104.7 179.27 105.369 188.925C106.037 198.579 110.064 217.312 100.061 210.596C90.0705 203.871 83.1525 195.554 83.1525 195.554V195.554Z" fill="black"/>
<path d="M87.3807 177.144C88.5008 181.396 100.003 202.7 98.3136 204.949C96.6246 207.198 91.9907 200.504 89.9919 198.44C86.3958 194.734 85.6719 193.232 84.367 192.679C81.386 192.046 80.5801 195.076 80.542 197.082C80.0007 207.266 92.6936 223.758 106.563 232.729C130.499 248.212 168.389 241.986 173.997 233.316C179.603 224.648 167.032 185.774 143.095 170.291C119.221 154.844 95.8189 164.173 87.3807 177.144Z" fill="#55ACEE"/>
<path d="M118.762 171.257C121.904 173.289 122.808 177.482 120.772 180.629C118.738 183.774 114.541 184.671 111.4 182.639C108.256 180.605 107.358 176.409 109.39 173.267C111.426 170.12 115.618 169.223 118.762 171.257Z" fill="black"/>
<path d="M117.864 223.065C117.42 222.777 117.037 222.384 116.757 221.893C115.834 220.262 116.408 218.196 118.038 217.273C128.133 211.557 134.966 204.942 135.489 191.255C135.561 189.385 137.133 187.927 139.005 187.996C140.878 188.065 142.33 189.646 142.264 191.513C141.58 209.374 131.322 217.539 121.376 223.169C120.24 223.815 118.888 223.727 117.864 223.065V223.065Z" fill="#226699"/>
</g>
<path d="M267.857 440.493C267.141 440.025 266.345 439.671 265.518 439.442L263.931 436.49L245.315 440.25L245.133 442.931C244.095 443.378 242.906 444.338 242.249 445.273L231.952 437.852C230.233 439.093 229.302 441.264 229.765 443.475L230.231 445.702L222.973 457.31L224.072 462.379L252.445 482.424C252.445 482.424 269.426 441.848 269.499 441.905C269.095 441.447 267.972 440.522 267.857 440.493V440.493Z" fill="#EF9645"/>
<path d="M261.77 439.306L246.501 442.501C246.019 442.602 245.558 442.75 245.122 442.938L244.818 442.328L231.173 414.999C231.173 414.999 229.258 410.661 233.595 408.748C237.931 406.833 239.846 411.169 239.846 411.169L252.648 436.507C253.694 436.347 254.715 436.227 255.727 436.122L255.406 410.732C255.406 410.732 254.875 406.022 259.588 405.489C264.298 404.958 264.829 409.669 264.829 409.669L265.456 436.566L265.523 439.444C264.333 439.124 263.06 439.036 261.77 439.306ZM224.454 442.271L224.844 442.19C227.301 441.676 229.706 443.25 230.22 445.707L232.243 455.373C232.757 457.83 231.185 460.237 228.728 460.751L228.338 460.832C225.881 461.346 223.476 459.772 222.962 457.315L220.939 447.649C220.425 445.192 221.997 442.785 224.454 442.271ZM241.942 445.78L241.842 445.951C240.999 447.409 240.625 449.139 240.997 450.918C241.028 451.064 241.087 451.197 241.129 451.339C241.56 452.89 242.471 454.187 243.679 455.101C243.577 455.435 243.419 455.744 243.25 456.046C242.603 457.191 241.519 458.074 240.134 458.364C237.572 458.9 235.058 457.256 234.522 454.695L231.609 440.774C231.395 439.751 231.54 438.742 231.941 437.857C232.544 436.527 233.738 435.485 235.279 435.163C237.84 434.627 240.354 436.271 240.89 438.832L242.239 445.277C242.124 445.435 242.045 445.616 241.942 445.78V445.78Z" fill="#FFDC5D"/>
<path d="M229.162 463.081C231.538 462.584 233.373 460.926 234.205 458.825C234.579 459.189 235.001 459.496 235.446 459.768C238.737 461.78 242.992 460.718 245.072 457.546C245.351 457.119 245.627 456.691 245.807 456.21L245.799 456.205C246.321 456.374 247.094 456.907 249.414 456.422L255.3 455.19C254.577 456.017 253.96 456.979 253.41 458.007C251.273 462.007 250.49 467.351 251.652 472.905C251.786 473.546 252.415 473.957 253.055 473.823C253.695 473.689 254.106 473.06 253.972 472.42C252.735 466.508 253.872 460.877 256.574 457.345C257.966 455.526 259.764 454.256 261.885 453.812C263.577 453.649 263.364 451.081 261.689 451.432L248.928 454.102C246.367 454.638 243.853 452.994 243.317 450.432C242.781 447.871 244.425 445.357 246.986 444.821L265.547 440.937C267.538 440.521 269.688 441.514 270.673 443.292L274.935 451.081C275.337 451.809 276.955 455.19 276.952 455.965C279.287 467.123 270.819 481.003 257.56 483.778C242.393 486.951 227.541 477.391 224.054 462.373L224.091 462.389C225.502 463.171 227.171 463.498 228.874 463.141L229.162 463.081Z" fill="#FFDC5D"/>
<defs>
<filter id="filter0_f" x="8.48926" y="204" width="214.97" height="214.97" filterUnits="userSpaceOnUse" color-interpolation-filters="sRGB">
<feFlood flood-opacity="0" result="BackgroundImageFix"/>
<feBlend mode="normal" in="SourceGraphic" in2="BackgroundImageFix" result="shape"/>
<feGaussianBlur stdDeviation="5" result="effect1_foregroundBlur"/>
</filter>
<filter id="filter1_f" x="858" y="342" width="170.692" height="170.692" filterUnits="userSpaceOnUse" color-interpolation-filters="sRGB">
<feFlood flood-opacity="0" result="BackgroundImageFix"/>
<feBlend mode="normal" in="SourceGraphic" in2="BackgroundImageFix" result="shape"/>
<feGaussianBlur stdDeviation="5" result="effect1_foregroundBlur"/>
</filter>
<clipPath id="clip0">
<rect width="160.828" height="160.828" fill="white" transform="translate(18.4893 252.924) rotate(-14.006)"/>
</clipPath>
<clipPath id="clip1">
<rect width="144.637" height="144.637" fill="white" transform="translate(868 358.188) rotate(-2.45183)"/>
</clipPath>
<clipPath id="clip2">
<rect width="117" height="117" fill="white" transform="matrix(-1 0 0 1 985 20)"/>
</clipPath>
<clipPath id="clip3">
<rect width="122" height="122" fill="white" transform="translate(130.134 110) rotate(32.8963)"/>
</clipPath>
</defs>
</svg>
